#N canvas 2 31 1912 1011 12;
#N canvas -8 -8 1920 997 sequence_clock 0;
#X msg 323 115 tempo \$1 permin;
#X obj 311 175 int 0;
#X obj 375 175 + 1;
#X obj 350 235 sel 15;
#X obj 311 253 + 1;
#X obj 259 28 inlet;
#X floatatom 311 282 5 0 0 0 - - - 0;
#X obj 259 115 t f f;
#X msg 259 141 0;
#X obj 38 391 s 01/16;
#X obj 38 375 bng 12 250 50 0 empty empty empty 17 7 0 10 #fcfcfc #000000 #000000;
#X obj 93 375 bng 12 250 50 0 empty empty empty 17 7 0 10 #fcfcfc #000000 #000000;
#X obj 148 375 bng 12 250 50 0 empty empty empty 17 7 0 10 #fcfcfc #000000 #000000;
#X obj 203 375 bng 12 250 50 0 empty empty empty 17 7 0 10 #fcfcfc #000000 #000000;
#X obj 258 375 bng 12 250 50 0 empty empty empty 17 7 0 10 #fcfcfc #000000 #000000;
#X obj 313 375 bng 12 250 50 0 empty empty empty 17 7 0 10 #fcfcfc #000000 #000000;
#X obj 368 375 bng 12 250 50 0 empty empty empty 17 7 0 10 #fcfcfc #000000 #000000;
#X obj 423 375 bng 12 250 50 0 empty empty empty 17 7 0 10 #fcfcfc #000000 #000000;
#X obj 478 375 bng 12 250 50 0 empty empty empty 17 7 0 10 #fcfcfc #000000 #000000;
#X obj 533 375 bng 12 250 50 0 empty empty empty 17 7 0 10 #fcfcfc #000000 #000000;
#X obj 588 375 bng 12 250 50 0 empty empty empty 17 7 0 10 #fcfcfc #000000 #000000;
#X obj 643 375 bng 12 250 50 0 empty empty empty 17 7 0 10 #fcfcfc #000000 #000000;
#X obj 93 391 s 02/16;
#X obj 148 391 s 03/16;
#X obj 203 391 s 04/16;
#X obj 258 391 s 05/16;
#X obj 313 391 s 06/16;
#X obj 368 391 s 07/16;
#X obj 423 391 s 08/16;
#X obj 478 391 s 09/16;
#X obj 533 391 s 10/16;
#X obj 588 391 s 11/16;
#X obj 643 391 s 12/16;
#X obj 753 375 bng 12 250 50 0 empty empty empty 17 7 0 10 #fcfcfc #000000 #000000;
#X obj 808 375 bng 12 250 50 0 empty empty empty 17 7 0 10 #fcfcfc #000000 #000000;
#X obj 863 375 bng 12 250 50 0 empty empty empty 17 7 0 10 #fcfcfc #000000 #000000;
#X obj 698 375 bng 12 250 50 0 empty empty empty 17 7 0 10 #fcfcfc #000000 #000000;
#X obj 698 391 s 13/16;
#X obj 753 391 s 14/16;
#X obj 808 391 s 15/16;
#X obj 863 391 s 16/16;
#X obj 311 310 sel 1 2 3 4 5 6 7 8 9 10 11 12 13 14 15 16;
#X floatatom 334 88 8 0 0 1 BPM bpm - 0;
#X obj 311 140 metro 0.25 100 permin;
#X msg 259 76 1;
#X msg 157 290 0;
#X obj 195 290 sel 16;
#X obj 246 290 spigot;
#X obj 259 52 sel 1;
#X obj 157 264 tgl 15 0 empty empty empty 17 7 0 10 #fcfcfc #000000 #000000 0 1;
#X obj 157 209 sel 1 0;
#X msg 157 235 0;
#X msg 192 235 1;
#X connect 0 0 43 0;
#X connect 1 0 2 0;
#X connect 1 0 4 0;
#X connect 1 0 3 0;
#X connect 2 0 1 1;
#X connect 3 0 8 0;
#X connect 4 0 6 0;
#X connect 5 0 48 0;
#X connect 5 0 50 0;
#X connect 6 0 41 0;
#X connect 6 0 47 0;
#X connect 7 0 43 0;
#X connect 7 1 8 0;
#X connect 8 0 1 1;
#X connect 10 0 9 0;
#X connect 11 0 22 0;
#X connect 12 0 23 0;
#X connect 13 0 24 0;
#X connect 14 0 25 0;
#X connect 15 0 26 0;
#X connect 16 0 27 0;
#X connect 17 0 28 0;
#X connect 18 0 29 0;
#X connect 19 0 30 0;
#X connect 20 0 31 0;
#X connect 21 0 32 0;
#X connect 33 0 38 0;
#X connect 34 0 39 0;
#X connect 35 0 40 0;
#X connect 36 0 37 0;
#X connect 41 0 10 0;
#X connect 41 1 11 0;
#X connect 41 2 12 0;
#X connect 41 3 13 0;
#X connect 41 4 14 0;
#X connect 41 5 15 0;
#X connect 41 6 16 0;
#X connect 41 7 17 0;
#X connect 41 8 18 0;
#X connect 41 9 19 0;
#X connect 41 10 20 0;
#X connect 41 11 21 0;
#X connect 41 12 36 0;
#X connect 41 13 33 0;
#X connect 41 14 34 0;
#X connect 41 15 35 0;
#X connect 42 0 0 0;
#X connect 43 0 1 0;
#X connect 44 0 7 0;
#X connect 45 0 43 0;
#X connect 46 0 45 0;
#X connect 47 0 46 0;
#X connect 48 0 44 0;
#X connect 49 0 47 1;
#X connect 50 0 51 0;
#X connect 50 1 52 0;
#X connect 51 0 49 0;
#X connect 52 0 49 0;
#X restore 215 62 pd sequence_clock;
#X obj 215 34 tgl 25 0 empty empty sequencer_status 27 11 0 12 #00f8fc #000000 #000000 0 1;
#X obj 449 382 vsl 10 100 0 1 0 1 \$0-master_ctl empty master 0 -10 0 12 #fcb44c #000000 #000000 9043 1;
#X obj 395 339 ctlin 57;
#X obj 395 361 / 127;
#N canvas 2 31 1912 1011 back_mixer 0;
#X obj 6 425 *~;
#X floatatom 24 340 5 0 0 0 - \$0-master_ctl - 0;
#X obj 6 451 clip~ -1 1;
#X obj 6 478 dac~;
#X obj 6 318 catch~ \$0-master_sig;
#X obj 24 393 vline~;
#X msg 24 366 \$1 50;
#N canvas 0 0 953 1011 amen_fx 0;
#X obj 152 136 inlet~;
#X obj 152 260 outlet~;
#X connect 0 0 1 0;
#X restore 6 42 pd amen_fx;
#N canvas 0 0 953 1011 drum_fx 0;
#X obj 152 136 inlet~;
#X obj 152 260 outlet~;
#X connect 0 0 1 0;
#X restore 266 42 pd drum_fx;
#N canvas 0 0 953 1011 harm_fx 0;
#X obj 183 128 inlet~;
#X obj 173 393 outlet~;
#X obj 300 284 *~ 0.5;
#X obj 174 354 +~;
#X obj 129 234 *~ 0.5;
#X obj 299 234 lop~ 8000;
#X obj 299 258 lop~ 8000;
#X obj 223 187 rev2~ 100 90 4000 100;
#X connect 0 0 4 0;
#X connect 0 0 7 0;
#X connect 2 0 3 1;
#X connect 3 0 1 0;
#X connect 4 0 3 0;
#X connect 5 0 6 0;
#X connect 6 0 2 0;
#X connect 7 3 5 0;
#X restore 525 42 pd harm_fx;
#N canvas 0 0 953 1011 melo_fx 0;
#X obj 183 168 inlet~;
#X obj 183 253 outlet~;
#X connect 0 0 1 0;
#X restore 789 241 pd melo_fx;
#X obj 6 139 *~;
#X obj 6 192 throw~ \$0-master_sig;
#X floatatom 24 65 5 0 0 0 - \$0-amen_ctl - 0;
#X msg 24 89 \$1 50;
#X obj 24 114 vline~;
#X obj 266 139 *~;
#X obj 266 192 throw~ \$0-master_sig;
#X floatatom 284 65 5 0 0 0 - \$0-drum_ctl - 0;
#X msg 284 89 \$1 50;
#X obj 284 114 vline~;
#X obj 525 139 *~;
#X obj 525 192 throw~ \$0-master_sig;
#X floatatom 543 65 5 0 0 0 - \$0-harm_ctl - 0;
#X msg 543 89 \$1 50;
#X obj 543 114 vline~;
#X obj 789 339 *~;
#X obj 789 392 throw~ \$0-master_sig;
#X floatatom 807 265 5 0 0 0 - \$0-melo_ctl - 0;
#X msg 807 289 \$1 50;
#X obj 807 314 vline~;
#X obj 6 165 clip~ -0.25 0.25;
#X obj 266 165 clip~ -0.25 0.25;
#X obj 525 165 clip~ -0.25 0.25;
#X obj 789 365 clip~ -0.25 0.25;
#X obj 6 9 catch~ amen_sig;
#X obj 266 9 catch~ drum_sig;
#X obj 525 9 catch~ harm_sig;
#X obj 904 9 catch~ bass_sig;
#X obj 789 9 catch~ bell_sig;
#X obj 952 47 ctlin 4;
#X obj 790 214 +~;
#X obj 789 187 *~;
#X obj 905 187 *~;
#X obj 952 71 / 254;
#X msg 952 95 \$1 50;
#X obj 952 119 line;
#X floatatom 952 145 5 0 0 0 - - - 0;
#X floatatom 1010 145 5 0 0 0 - - - 0;
#X obj 1010 121 expr 0.5 - $f1;
#X connect 0 0 2 0;
#X connect 1 0 6 0;
#X connect 2 0 3 0;
#X connect 2 0 3 1;
#X connect 4 0 0 0;
#X connect 5 0 0 1;
#X connect 6 0 5 0;
#X connect 7 0 11 0;
#X connect 8 0 16 0;
#X connect 9 0 21 0;
#X connect 10 0 26 0;
#X connect 11 0 31 0;
#X connect 13 0 14 0;
#X connect 14 0 15 0;
#X connect 15 0 11 1;
#X connect 16 0 32 0;
#X connect 18 0 19 0;
#X connect 19 0 20 0;
#X connect 20 0 16 1;
#X connect 21 0 33 0;
#X connect 23 0 24 0;
#X connect 24 0 25 0;
#X connect 25 0 21 1;
#X connect 26 0 34 0;
#X connect 28 0 29 0;
#X connect 29 0 30 0;
#X connect 30 0 26 1;
#X connect 31 0 12 0;
#X connect 32 0 17 0;
#X connect 33 0 22 0;
#X connect 34 0 27 0;
#X connect 35 0 7 0;
#X connect 36 0 8 0;
#X connect 37 0 9 0;
#X connect 38 0 43 0;
#X connect 39 0 42 0;
#X connect 40 0 44 0;
#X connect 41 0 10 0;
#X connect 42 0 41 0;
#X connect 43 0 41 1;
#X connect 44 0 45 0;
#X connect 45 0 46 0;
#X connect 46 0 47 0;
#X connect 46 0 49 0;
#X connect 47 0 42 1;
#X connect 48 0 43 1;
#X connect 49 0 48 0;
#X restore 28 317 pd back_mixer;
#X obj 74 382 vsl 10 100 0 0.25 0 0 \$0-amen_ctl empty amen 0 -10 0 12 #fce0c4 #000000 #000000 0 1;
#X obj 160 382 vsl 10 100 0 0.25 0 0 \$0-drum_ctl empty drums 0 -10 0 12 #fce0c4 #000000 #000000 0 1;
#X obj 250 382 vsl 10 100 0 0.25 0 0 \$0-harm_ctl empty harm 0 -10 0 12 #fce0c4 #000000 #000000 0 1;
#X obj 333 382 vsl 10 100 0 0.25 0 0 \$0-melo_ctl empty melo 0 -10 0 12 #fce0c4 #000000 #000000 0 1;
#X obj 28 339 ctlin 49;
#X obj 114 339 ctlin 50;
#X obj 204 339 ctlin 51;
#X obj 288 339 ctlin 52;
#X obj 28 361 / 508;
#X obj 114 361 / 508;
#X obj 204 361 / 508;
#X obj 288 361 / 508;
#N canvas -1928 -106 1920 997 generative_beat 0;
#X obj 28 75 r 01/16;
#X obj 83 75 r 02/16;
#X obj 138 75 r 03/16;
#X obj 193 75 r 04/16;
#X obj 248 75 r 05/16;
#X obj 303 75 r 06/16;
#X obj 358 75 r 07/16;
#X obj 413 75 r 08/16;
#X obj 468 75 r 09/16;
#X obj 523 75 r 10/16;
#X obj 578 75 r 11/16;
#X obj 633 75 r 12/16;
#X obj 688 75 r 13/16;
#X obj 743 75 r 14/16;
#X obj 853 75 r 16/16;
#X obj 798 75 r 15/16;
#X obj 28 124 play_kick;
#X obj 248 124 play_snare;
#X obj 468 124 play_ghost;
#X obj 688 124 play_snare;
#X obj 28 100 bng 15 250 50 0 empty empty empty 0 -10 0 12 #fcfcfc #9c00fc #000000;
#X obj 83 100 bng 15 250 50 0 empty empty empty 0 -10 0 12 #fcfcfc #000000 #000000;
#X obj 138 100 bng 15 250 50 0 empty empty empty 0 -10 0 12 #fcfcfc #000000 #000000;
#X obj 193 100 bng 15 250 50 0 empty empty empty 0 -10 0 12 #fcfcfc #202020 #000000;
#X obj 248 100 bng 15 250 50 0 empty empty empty 0 -10 0 12 #fcfcfc #9c00fc #000000;
#X obj 303 100 bng 15 250 50 0 empty empty empty 0 -10 0 12 #fcfcfc #000000 #000000;
#X obj 358 100 bng 15 250 50 0 empty empty empty 0 -10 0 12 #fcfcfc #000000 #000000;
#X obj 413 100 bng 15 250 50 0 empty empty empty 0 -10 0 12 #fcfcfc #000000 #000000;
#X obj 468 100 bng 15 250 50 0 empty empty empty 0 -10 0 12 #fcfcfc #9c00fc #000000;
#X obj 523 100 bng 15 250 50 0 empty empty empty 0 -10 0 12 #fcfcfc #000000 #000000;
#X obj 578 100 bng 15 250 50 0 empty empty empty 0 -10 0 12 #fcfcfc #000000 #000000;
#X obj 633 100 bng 15 250 50 0 empty empty empty 0 -10 0 12 #fcfcfc #000000 #000000;
#X obj 688 100 bng 15 250 50 0 empty empty empty 0 -10 0 12 #fcfcfc #9c00fc #000000;
#X obj 743 100 bng 15 250 50 0 empty empty empty 0 -10 0 12 #fcfcfc #000000 #000000;
#X obj 798 100 bng 15 250 50 0 empty empty empty 0 -10 0 12 #fcfcfc #000000 #000000;
#X obj 853 100 bng 15 250 50 0 empty empty empty 0 -10 0 12 #fcfcfc #000000 #000000;
#X obj 578 124 play_kick;
#N canvas -1881 -84 953 865 play2 0;
#X obj 29 9 inlet;
#X floatatom 29 111 5 0 0 0 - - - 0;
#X obj 29 84 +;
#X floatatom 71 60 5 0 0 1 beat_randomness beat_randomness - 0;
#X obj 29 161 sel 1;
#X obj 29 188 random 100;
#X obj 29 213 + 1;
#X obj 29 337 play_ghost;
#X obj 82 364 play_kick;
#X obj 135 391 play_snare;
#X obj 29 288 bng 15 250 50 0 empty empty empty 0 -10 0 12 #fcfcfc #000000 #000000;
#X obj 82 315 bng 15 250 50 0 empty empty empty 0 -10 0 12 #fcfcfc #000000 #000000;
#X obj 135 315 bng 15 250 50 0 empty empty empty 0 -10 0 12 #fcfcfc #000000 #000000;
#X floatatom 29 239 5 0 0 0 - - - 0;
#X obj 29 36 random 100;
#X obj 29 265 moses 70;
#X obj 82 292 moses 85;
#X obj 29 136 >= 135;
#X floatatom 29 60 5 0 0 0 - - - 0;
#X connect 0 0 14 0;
#X connect 1 0 17 0;
#X connect 2 0 1 0;
#X connect 3 0 2 1;
#X connect 4 0 5 0;
#X connect 5 0 6 0;
#X connect 6 0 13 0;
#X connect 10 0 7 0;
#X connect 11 0 8 0;
#X connect 12 0 9 0;
#X connect 13 0 15 0;
#X connect 14 0 18 0;
#X connect 15 0 10 0;
#X connect 15 1 16 0;
#X connect 16 0 11 0;
#X connect 16 1 12 0;
#X connect 17 0 4 0;
#X connect 18 0 2 0;
#X restore 83 148 pd play2;
#N canvas 961 31 953 1011 play3 0;
#X obj 29 9 inlet;
#X floatatom 29 111 5 0 0 0 - - - 0;
#X obj 29 84 +;
#X floatatom 66 61 5 0 0 0 - beat_randomness - 0;
#X obj 29 161 sel 1;
#X obj 29 188 random 100;
#X obj 29 213 + 1;
#X obj 29 288 bng 15 250 50 0 empty empty empty 0 -10 0 12 #fcfcfc #000000 #000000;
#X obj 82 315 bng 15 250 50 0 empty empty empty 0 -10 0 12 #fcfcfc #000000 #000000;
#X obj 135 315 bng 15 250 50 0 empty empty empty 0 -10 0 12 #fcfcfc #000000 #000000;
#X floatatom 29 239 5 0 0 0 - - - 0;
#X obj 29 36 random 100;
#X obj 29 136 >= 100;
#X obj 29 337 play_kick;
#X obj 82 364 play_snare;
#X obj 135 391 play_ghost;
#X obj 29 265 moses 42;
#X obj 82 292 moses 84;
#X connect 0 0 11 0;
#X connect 1 0 12 0;
#X connect 2 0 1 0;
#X connect 3 0 2 1;
#X connect 4 0 5 0;
#X connect 5 0 6 0;
#X connect 6 0 10 0;
#X connect 7 0 13 0;
#X connect 8 0 14 0;
#X connect 9 0 15 0;
#X connect 10 0 16 0;
#X connect 11 0 2 0;
#X connect 12 0 4 0;
#X connect 16 0 7 0;
#X connect 16 1 17 0;
#X connect 17 0 8 0;
#X connect 17 1 9 0;
#X restore 138 172 pd play3;
#N canvas 1281 31 953 1011 play4 0;
#X obj 29 9 inlet;
#X floatatom 29 111 5 0 0 0 - - - 0;
#X obj 29 84 +;
#X floatatom 66 61 5 0 0 0 - beat_randomness - 0;
#X obj 29 161 sel 1;
#X obj 29 188 random 100;
#X obj 29 213 + 1;
#X obj 29 337 play_ghost;
#X obj 82 364 play_kick;
#X obj 135 391 play_snare;
#X obj 29 288 bng 15 250 50 0 empty empty empty 0 -10 0 12 #fcfcfc #000000 #000000;
#X obj 82 315 bng 15 250 50 0 empty empty empty 0 -10 0 12 #fcfcfc #000000 #000000;
#X obj 135 315 bng 15 250 50 0 empty empty empty 0 -10 0 12 #fcfcfc #000000 #000000;
#X floatatom 29 239 5 0 0 0 - - - 0;
#X obj 29 36 random 100;
#X obj 29 136 >= 150;
#X obj 29 265 moses 70;
#X obj 82 292 moses 85;
#X connect 0 0 14 0;
#X connect 1 0 15 0;
#X connect 2 0 1 0;
#X connect 3 0 2 1;
#X connect 4 0 5 0;
#X connect 5 0 6 0;
#X connect 6 0 13 0;
#X connect 10 0 7 0;
#X connect 11 0 8 0;
#X connect 12 0 9 0;
#X connect 13 0 16 0;
#X connect 14 0 2 0;
#X connect 15 0 4 0;
#X connect 16 0 10 0;
#X connect 16 1 17 0;
#X connect 17 0 11 0;
#X connect 17 1 12 0;
#X restore 193 196 pd play4;
#N canvas 1281 31 953 1011 play6 0;
#X obj 29 9 inlet;
#X floatatom 29 111 5 0 0 0 - - - 0;
#X obj 29 84 +;
#X floatatom 66 61 5 0 0 0 - beat_randomness - 0;
#X obj 29 161 sel 1;
#X obj 29 188 random 100;
#X obj 29 213 + 1;
#X obj 29 337 play_ghost;
#X obj 29 288 bng 15 250 50 0 empty empty empty 0 -10 0 12 #fcfcfc #000000 #000000;
#X obj 82 315 bng 15 250 50 0 empty empty empty 0 -10 0 12 #fcfcfc #000000 #000000;
#X obj 135 315 bng 15 250 50 0 empty empty empty 0 -10 0 12 #fcfcfc #000000 #000000;
#X floatatom 29 239 5 0 0 0 - - - 0;
#X obj 29 36 random 100;
#X obj 29 136 >= 125;
#X obj 82 364 play_snare;
#X obj 135 391 play_kick;
#X obj 29 265 moses 65;
#X obj 82 292 moses 75;
#X connect 0 0 12 0;
#X connect 1 0 13 0;
#X connect 2 0 1 0;
#X connect 3 0 2 1;
#X connect 4 0 5 0;
#X connect 5 0 6 0;
#X connect 6 0 11 0;
#X connect 8 0 7 0;
#X connect 9 0 14 0;
#X connect 10 0 15 0;
#X connect 11 0 16 0;
#X connect 12 0 2 0;
#X connect 13 0 4 0;
#X connect 16 0 8 0;
#X connect 16 1 17 0;
#X connect 17 0 9 0;
#X connect 17 1 10 0;
#X restore 303 148 pd play6;
#N canvas 961 31 953 1011 play7 0;
#X obj 29 9 inlet;
#X floatatom 29 111 5 0 0 0 - - - 0;
#X obj 29 84 +;
#X floatatom 66 61 5 0 0 0 - beat_randomness - 0;
#X obj 29 161 sel 1;
#X obj 29 188 random 100;
#X obj 29 213 + 1;
#X obj 29 288 bng 15 250 50 0 empty empty empty 0 -10 0 12 #fcfcfc #000000 #000000;
#X obj 82 315 bng 15 250 50 0 empty empty empty 0 -10 0 12 #fcfcfc #000000 #000000;
#X obj 135 315 bng 15 250 50 0 empty empty empty 0 -10 0 12 #fcfcfc #000000 #000000;
#X floatatom 29 239 5 0 0 0 - - - 0;
#X obj 29 36 random 100;
#X obj 29 136 >= 100;
#X obj 29 337 play_kick;
#X obj 82 364 play_snare;
#X obj 135 391 play_ghost;
#X obj 29 265 moses 45;
#X obj 82 292 moses 90;
#X connect 0 0 11 0;
#X connect 1 0 12 0;
#X connect 2 0 1 0;
#X connect 3 0 2 1;
#X connect 4 0 5 0;
#X connect 5 0 6 0;
#X connect 6 0 10 0;
#X connect 7 0 13 0;
#X connect 8 0 14 0;
#X connect 9 0 15 0;
#X connect 10 0 16 0;
#X connect 11 0 2 0;
#X connect 12 0 4 0;
#X connect 16 0 7 0;
#X connect 16 1 17 0;
#X connect 17 0 8 0;
#X connect 17 1 9 0;
#X restore 358 172 pd play7;
#N canvas 0 0 953 1011 play8 0;
#X obj 29 9 inlet;
#X floatatom 29 111 5 0 0 0 - - - 0;
#X obj 29 84 +;
#X floatatom 66 61 5 0 0 0 - beat_randomness - 0;
#X obj 29 161 sel 1;
#X obj 29 188 random 100;
#X obj 29 213 + 1;
#X obj 29 337 play_ghost;
#X obj 29 288 bng 15 250 50 0 empty empty empty 0 -10 0 12 #fcfcfc #000000 #000000;
#X obj 82 315 bng 15 250 50 0 empty empty empty 0 -10 0 12 #fcfcfc #000000 #000000;
#X obj 135 315 bng 15 250 50 0 empty empty empty 0 -10 0 12 #fcfcfc #000000 #000000;
#X floatatom 29 239 5 0 0 0 - - - 0;
#X obj 29 36 random 100;
#X obj 29 136 >= 125;
#X obj 82 364 play_snare;
#X obj 135 391 play_kick;
#X obj 29 265 moses 25;
#X obj 82 292 moses 55;
#X connect 0 0 12 0;
#X connect 1 0 13 0;
#X connect 2 0 1 0;
#X connect 3 0 2 1;
#X connect 4 0 5 0;
#X connect 5 0 6 0;
#X connect 6 0 11 0;
#X connect 8 0 7 0;
#X connect 9 0 14 0;
#X connect 10 0 15 0;
#X connect 11 0 16 0;
#X connect 12 0 2 0;
#X connect 13 0 4 0;
#X connect 16 0 8 0;
#X connect 16 1 17 0;
#X connect 17 0 9 0;
#X connect 17 1 10 0;
#X restore 413 196 pd play8;
#N canvas 0 0 953 1011 play10 0;
#X obj 29 9 inlet;
#X floatatom 29 111 5 0 0 0 - - - 0;
#X obj 29 84 +;
#X floatatom 66 61 5 0 0 0 - beat_randomness - 0;
#X obj 29 161 sel 1;
#X obj 29 188 random 100;
#X obj 29 213 + 1;
#X obj 29 288 bng 15 250 50 0 empty empty empty 0 -10 0 12 #fcfcfc #000000 #000000;
#X obj 82 315 bng 15 250 50 0 empty empty empty 0 -10 0 12 #fcfcfc #000000 #000000;
#X obj 135 315 bng 15 250 50 0 empty empty empty 0 -10 0 12 #fcfcfc #000000 #000000;
#X floatatom 29 239 5 0 0 0 - - - 0;
#X obj 29 36 random 100;
#X obj 82 364 play_snare;
#X obj 29 337 play_ghost;
#X obj 82 292 moses 85;
#X obj 135 391 play_kick;
#X obj 29 136 >= 110;
#X obj 29 265 moses 65;
#X connect 0 0 11 0;
#X connect 1 0 16 0;
#X connect 2 0 1 0;
#X connect 3 0 2 1;
#X connect 4 0 5 0;
#X connect 5 0 6 0;
#X connect 6 0 10 0;
#X connect 7 0 13 0;
#X connect 8 0 12 0;
#X connect 9 0 15 0;
#X connect 10 0 17 0;
#X connect 11 0 2 0;
#X connect 14 0 8 0;
#X connect 14 1 9 0;
#X connect 16 0 4 0;
#X connect 17 0 7 0;
#X connect 17 1 14 0;
#X restore 523 148 pd play10;
#N canvas 961 31 953 1011 play12 0;
#X obj 29 9 inlet;
#X floatatom 29 111 5 0 0 0 - - - 0;
#X obj 29 84 +;
#X floatatom 66 61 5 0 0 0 - beat_randomness - 0;
#X obj 29 161 sel 1;
#X obj 29 188 random 100;
#X obj 29 213 + 1;
#X obj 29 288 bng 15 250 50 0 empty empty empty 0 -10 0 12 #fcfcfc #000000 #000000;
#X obj 82 315 bng 15 250 50 0 empty empty empty 0 -10 0 12 #fcfcfc #000000 #000000;
#X obj 135 315 bng 15 250 50 0 empty empty empty 0 -10 0 12 #fcfcfc #000000 #000000;
#X floatatom 29 239 5 0 0 0 - - - 0;
#X obj 29 36 random 100;
#X obj 29 136 >= 100;
#X obj 29 337 play_kick;
#X obj 82 364 play_snare;
#X obj 135 391 play_ghost;
#X obj 29 265 moses 40;
#X obj 82 292 moses 70;
#X connect 0 0 11 0;
#X connect 1 0 12 0;
#X connect 2 0 1 0;
#X connect 3 0 2 1;
#X connect 4 0 5 0;
#X connect 5 0 6 0;
#X connect 6 0 10 0;
#X connect 7 0 13 0;
#X connect 8 0 14 0;
#X connect 9 0 15 0;
#X connect 10 0 16 0;
#X connect 11 0 2 0;
#X connect 12 0 4 0;
#X connect 16 0 7 0;
#X connect 16 1 17 0;
#X connect 17 0 8 0;
#X connect 17 1 9 0;
#X restore 633 148 pd play12;
#N canvas 0 0 953 1011 play14 0;
#X obj 29 9 inlet;
#X floatatom 29 111 5 0 0 0 - - - 0;
#X obj 29 84 +;
#X floatatom 66 61 5 0 0 0 - beat_randomness - 0;
#X obj 29 161 sel 1;
#X obj 29 188 random 100;
#X obj 29 265 moses 50;
#X obj 29 213 + 1;
#X obj 82 292 moses 80;
#X obj 29 337 play_ghost;
#X obj 82 364 play_kick;
#X obj 135 391 play_snare;
#X obj 29 288 bng 15 250 50 0 empty empty empty 0 -10 0 12 #fcfcfc #000000 #000000;
#X obj 82 315 bng 15 250 50 0 empty empty empty 0 -10 0 12 #fcfcfc #000000 #000000;
#X obj 135 315 bng 15 250 50 0 empty empty empty 0 -10 0 12 #fcfcfc #000000 #000000;
#X floatatom 29 239 5 0 0 0 - - - 0;
#X obj 29 36 random 100;
#X obj 29 136 >= 130;
#X connect 0 0 16 0;
#X connect 1 0 17 0;
#X connect 2 0 1 0;
#X connect 3 0 2 1;
#X connect 4 0 5 0;
#X connect 5 0 7 0;
#X connect 6 0 12 0;
#X connect 6 1 8 0;
#X connect 7 0 15 0;
#X connect 8 0 13 0;
#X connect 8 1 14 0;
#X connect 12 0 9 0;
#X connect 13 0 10 0;
#X connect 14 0 11 0;
#X connect 15 0 6 0;
#X connect 16 0 2 0;
#X connect 17 0 4 0;
#X restore 743 148 pd play14;
#N canvas 0 0 953 1011 play15 0;
#X obj 29 9 inlet;
#X floatatom 29 111 5 0 0 0 - - - 0;
#X obj 29 84 +;
#X floatatom 66 61 5 0 0 0 - beat_randomness - 0;
#X obj 29 161 sel 1;
#X obj 29 188 random 100;
#X obj 29 213 + 1;
#X obj 29 288 bng 15 250 50 0 empty empty empty 0 -10 0 12 #fcfcfc #000000 #000000;
#X obj 82 315 bng 15 250 50 0 empty empty empty 0 -10 0 12 #fcfcfc #000000 #000000;
#X obj 135 315 bng 15 250 50 0 empty empty empty 0 -10 0 12 #fcfcfc #000000 #000000;
#X floatatom 29 239 5 0 0 0 - - - 0;
#X obj 29 36 random 100;
#X obj 29 136 >= 100;
#X obj 29 337 play_kick;
#X obj 82 364 play_snare;
#X obj 135 391 play_ghost;
#X obj 29 265 moses 42;
#X obj 82 292 moses 84;
#X connect 0 0 11 0;
#X connect 1 0 12 0;
#X connect 2 0 1 0;
#X connect 3 0 2 1;
#X connect 4 0 5 0;
#X connect 5 0 6 0;
#X connect 6 0 10 0;
#X connect 7 0 13 0;
#X connect 8 0 14 0;
#X connect 9 0 15 0;
#X connect 10 0 16 0;
#X connect 11 0 2 0;
#X connect 12 0 4 0;
#X connect 16 0 7 0;
#X connect 16 1 17 0;
#X connect 17 0 8 0;
#X connect 17 1 9 0;
#X restore 798 172 pd play15;
#N canvas 0 0 953 1011 play16 0;
#X obj 29 9 inlet;
#X floatatom 29 111 5 0 0 0 - - - 0;
#X obj 29 84 +;
#X floatatom 66 61 5 0 0 0 - beat_randomness - 0;
#X obj 29 161 sel 1;
#X obj 29 188 random 100;
#X obj 29 265 moses 50;
#X obj 29 213 + 1;
#X obj 82 292 moses 80;
#X obj 29 337 play_ghost;
#X obj 82 364 play_kick;
#X obj 135 391 play_snare;
#X obj 29 288 bng 15 250 50 0 empty empty empty 0 -10 0 12 #fcfcfc #000000 #000000;
#X obj 82 315 bng 15 250 50 0 empty empty empty 0 -10 0 12 #fcfcfc #000000 #000000;
#X obj 135 315 bng 15 250 50 0 empty empty empty 0 -10 0 12 #fcfcfc #000000 #000000;
#X floatatom 29 239 5 0 0 0 - - - 0;
#X obj 29 36 random 100;
#X obj 29 136 >= 150;
#X connect 0 0 16 0;
#X connect 1 0 17 0;
#X connect 2 0 1 0;
#X connect 3 0 2 1;
#X connect 4 0 5 0;
#X connect 5 0 7 0;
#X connect 6 0 12 0;
#X connect 6 1 8 0;
#X connect 7 0 15 0;
#X connect 8 0 13 0;
#X connect 8 1 14 0;
#X connect 12 0 9 0;
#X connect 13 0 10 0;
#X connect 14 0 11 0;
#X connect 15 0 6 0;
#X connect 16 0 2 0;
#X connect 17 0 4 0;
#X restore 853 196 pd play16;
#X connect 0 0 20 0;
#X connect 1 0 21 0;
#X connect 2 0 22 0;
#X connect 3 0 23 0;
#X connect 4 0 24 0;
#X connect 5 0 25 0;
#X connect 6 0 26 0;
#X connect 7 0 27 0;
#X connect 8 0 28 0;
#X connect 9 0 29 0;
#X connect 10 0 30 0;
#X connect 11 0 31 0;
#X connect 12 0 32 0;
#X connect 13 0 33 0;
#X connect 14 0 35 0;
#X connect 15 0 34 0;
#X connect 20 0 16 0;
#X connect 21 0 37 0;
#X connect 22 0 38 0;
#X connect 23 0 39 0;
#X connect 24 0 17 0;
#X connect 25 0 40 0;
#X connect 26 0 41 0;
#X connect 27 0 42 0;
#X connect 28 0 18 0;
#X connect 29 0 43 0;
#X connect 30 0 36 0;
#X connect 31 0 44 0;
#X connect 32 0 19 0;
#X connect 33 0 45 0;
#X connect 34 0 46 0;
#X connect 35 0 47 0;
#X restore 215 84 pd generative_beat;
#N canvas 961 31 953 1011 harmony 0;
#X obj 88 21 r 01/16;
#X obj 179 21 r 11/16;
#X obj 179 87 random 2;
#X obj 179 109 sel 0 1;
#X obj 179 65 sel 0;
#X obj 179 131 bng 20 250 50 0 empty empty empty 0 -10 0 12 #fcfcfc #000000 #000000;
#X obj 202 131 bng 20 250 50 0 empty empty empty 0 -10 0 12 #fcfcfc #000000 #000000;
#X msg 88 45 4;
#X msg 179 155 2;
#X msg 218 155 2;
#N canvas 2 31 1912 1011 chord_generation 0;
#X obj 9 11 r hz;
#X obj 9 36 synth_chord;
#X obj 83 11 inlet;
#X obj 200 31 inlet;
#X obj 200 55 t f b b;
#X obj 421 74 random 12;
#X obj 126 205 synth_chord;
#X obj 421 98 + 1;
#X floatatom 421 122 5 0 0 1 - - - 0;
#X obj 236 149 expr $f1 * pow($f2 \, $f3);
#X obj 287 98 r note_distance;
#X obj 236 98 r hz;
#X floatatom 236 173 8 0 0 1 - - - 0;
#X obj 186 288 inlet;
#X floatatom 9 64 5 0 0 1 - - - 0;
#X obj 783 194 loadbang;
#X msg 783 218 12;
#X obj 112 522 synth_chord;
#X floatatom 604 280 5 0 0 0 - - - 0;
#X obj 544 304 random 12;
#X floatatom 421 354 5 0 0 1 - - - 0;
#X obj 421 330 expr $f1 + $f2 + 1;
#X obj 256 467 expr $f1 * pow($f2 \, $f3);
#X obj 256 442 r hz;
#X obj 301 442 r note_distance;
#X floatatom 256 490 8 0 0 1 - - - 0;
#X obj 421 197 t f f;
#X obj 186 312 t f b b b;
#X obj 604 256 expr ($f2) - $f1 - 1;
#X obj 506 97 int;
#X obj 506 50 / 2;
#X obj 506 26 r notes_in_scale;
#X obj 652 218 r notes_in_scale;
#X obj 421 434 array get;
#X msg 483 411 symbol scale_reference;
#X msg 451 411 1;
#X obj 421 377 t f b b;
#X obj 465 173 array get;
#X msg 527 150 symbol scale_reference;
#X msg 495 150 1;
#X obj 437 149 t f b b;
#X msg 9 139 0;
#X obj 9 114 loadbang;
#X obj 9 89 s hz_nota1;
#X obj 9 166 s st_nota1;
#X obj 236 196 s hz_nota2;
#X obj 465 198 s st_nota2;
#X obj 256 513 s hz_nota3;
#X obj 431 467 s st_nota3;
#X obj 506 74 + 1;
#X connect 0 0 1 0;
#X connect 0 0 14 0;
#X connect 2 0 1 1;
#X connect 3 0 4 0;
#X connect 4 0 6 1;
#X connect 4 1 9 0;
#X connect 4 2 5 0;
#X connect 5 0 7 0;
#X connect 7 0 8 0;
#X connect 8 0 26 0;
#X connect 8 0 40 0;
#X connect 9 0 12 0;
#X connect 10 0 9 1;
#X connect 11 0 9 0;
#X connect 12 0 6 0;
#X connect 12 0 45 0;
#X connect 13 0 27 0;
#X connect 14 0 43 0;
#X connect 15 0 16 0;
#X connect 16 0 28 1;
#X connect 18 0 19 1;
#X connect 19 0 21 1;
#X connect 20 0 36 0;
#X connect 21 0 20 0;
#X connect 22 0 25 0;
#X connect 23 0 22 0;
#X connect 24 0 22 1;
#X connect 25 0 17 0;
#X connect 25 0 47 0;
#X connect 26 0 21 0;
#X connect 26 1 28 0;
#X connect 27 0 17 1;
#X connect 27 1 22 0;
#X connect 27 2 21 0;
#X connect 27 3 19 0;
#X connect 28 0 18 0;
#X connect 29 0 5 1;
#X connect 30 0 49 0;
#X connect 31 0 30 0;
#X connect 32 0 28 1;
#X connect 33 0 22 2;
#X connect 33 0 48 0;
#X connect 34 0 33 2;
#X connect 35 0 33 1;
#X connect 36 0 33 0;
#X connect 36 1 35 0;
#X connect 36 2 34 0;
#X connect 37 0 9 2;
#X connect 37 0 46 0;
#X connect 38 0 37 2;
#X connect 39 0 37 1;
#X connect 40 0 37 0;
#X connect 40 1 39 0;
#X connect 40 2 38 0;
#X connect 41 0 44 0;
#X connect 42 0 41 0;
#X connect 49 0 29 0;
#X restore 49 222 pd chord_generation;
#X obj 179 43 random 6;
#X connect 0 0 7 0;
#X connect 1 0 11 0;
#X connect 2 0 3 0;
#X connect 3 0 5 0;
#X connect 3 1 6 0;
#X connect 4 0 2 0;
#X connect 5 0 8 0;
#X connect 6 0 9 0;
#X connect 7 0 10 2;
#X connect 7 0 10 0;
#X connect 7 0 10 1;
#X connect 8 0 10 1;
#X connect 9 0 10 2;
#X connect 11 0 4 0;
#X coords 0 0 0.25 0.25 0 0 0;
#X restore 804 10 pd harmony;
#N canvas 2 31 633 1011 tonality 0;
#X floatatom 20 115 8 0 0 0 - - - 0;
#X obj 20 91 line;
#X obj 20 139 send hz;
#X obj 20 19 ctlin 3;
#X floatatom 97 363 5 0 0 0 - - - 0;
#X obj 278 390 loadbang;
#X msg 278 415 12;
#X obj 97 192 ctlin 43;
#X obj 97 316 int;
#X obj 20 241 bng 14 250 50 0 empty empty empty 0 -10 0 12 #fcfcfc #000000 #000000;
#X obj 97 241 bng 14 250 50 0 empty empty empty 0 -10 0 8 #fcfcfc #000000 #000000;
#X msg 97 260 -1;
#X obj 97 291 +;
#X msg 20 260 1;
#X obj 20 192 ctlin 27;
#X obj 20 217 sel 127;
#X obj 97 217 sel 127;
#X floatatom 18 492 12 0 0 0 - - - 0;
#X obj 18 467 expr pow(2 \, 1/$f1);
#X obj 18 516 send note_distance;
#X obj 97 339 clip 5 24;
#X obj 205 473 send notes_in_octave;
#X obj 20 43 expr ($f1 / 127 * 150) + 150;
#X msg 20 67 \$1 400;
#X obj 205 444 int;
#X obj 205 389 r 01/16;
#X obj 205 413 spigot;
#X obj 244 309 tgl 15 0 empty empty empty 17 7 0 10 #fcfcfc #000000 #000000 0 1;
#X msg 208 262 1;
#X msg 244 262 0;
#N canvas 0 50 450 250 (subpatch) 0;
#X array scale_reference 14 float 3;
#A 0 0 2 3 7 9 8 10 13 14 15 17 19 20 22;
#X coords 14 0 0 23 200 140 1 0 0;
#X restore 1550 55 graph;
#N canvas 867 305 822 508 scale_set 0;
#X obj 122 150 inlet;
#X obj 275 333 array set;
#X obj 275 201 loadbang;
#X msg 298 248 0;
#X obj 275 225 t b b b;
#X msg 321 295 symbol scale_reference;
#X msg 275 271 0 2 3 5 7 8 10 12 14 15 17 19 20 22;
#X obj 122 174 t l b b;
#X connect 0 0 7 0;
#X connect 2 0 4 0;
#X connect 3 0 1 1;
#X connect 4 0 6 0;
#X connect 4 1 3 0;
#X connect 4 2 5 0;
#X connect 5 0 1 2;
#X connect 6 0 1 0;
#X connect 7 0 1 0;
#X connect 7 1 3 0;
#X connect 7 2 5 0;
#X restore 838 561 pd scale_set;
#X msg 693 144 0 1 2 3 4;
#X msg 713 166 0 1 2 3 4 5;
#X obj 693 122 sel 5 6 7 8 9 10 11 12 13 14 15 16 17 18 19 20 21 22 23 24;
#X obj 693 96 r notes_in_octave;
#X msg 733 188 0 1 2 3 4 5 6;
#X msg 753 210 0 2 4 5 6;
#X msg 773 232 0 2 3 4 6 8;
#X msg 794 254 0 2 3 7 9;
#X msg 813 276 0 2 4 5 8 9;
#X msg 834 298 0 2 3 5 7 8 10;
#X msg 854 320 0 2 4 6 8 9 11;
#X msg 874 342 0 2 4 5 7 10 12;
#X msg 915 385 0 1 4 5 8 9 12 13;
#X msg 934 407 0 2 4 7 10 11 14;
#X msg 954 429 0 3 4 7 10 11 14 17;
#X obj 693 514 list length;
#X floatatom 693 538 5 0 0 0 - - - 0;
#X obj 693 561 s notes_in_scale;
#X msg 975 451 0 5 6 11 12 17 18;
#X msg 995 473 0 4 7 8 12 15 19;
#X msg 1015 495 0 3 4 7 9 12 13 16 18;
#X msg 1035 517 0 3 6 9 12 15 18 21;
#X msg 1055 539 0 2 4 6 9 11 13 16 18 20;
#X msg 894 363 0 3 5 6 9 11 14;
#X msg 1075 561 0 4 7 10 14 17 21;
#X obj 18 420 r notes_in_octave;
#X floatatom 18 444 5 0 0 0 - - - 0;
#X msg 1147 251 0 4 7 10 14 17 21;
#X connect 0 0 2 0;
#X connect 1 0 0 0;
#X connect 3 0 22 0;
#X connect 4 0 24 1;
#X connect 4 0 12 1;
#X connect 5 0 6 0;
#X connect 6 0 21 0;
#X connect 7 0 16 0;
#X connect 8 0 20 0;
#X connect 9 0 13 0;
#X connect 9 0 28 0;
#X connect 10 0 11 0;
#X connect 10 0 28 0;
#X connect 11 0 12 0;
#X connect 12 0 8 0;
#X connect 13 0 12 0;
#X connect 14 0 15 0;
#X connect 15 0 9 0;
#X connect 16 0 10 0;
#X connect 17 0 19 0;
#X connect 18 0 17 0;
#X connect 20 0 4 0;
#X connect 22 0 23 0;
#X connect 23 0 1 0;
#X connect 24 0 21 0;
#X connect 24 0 29 0;
#X connect 25 0 26 0;
#X connect 26 0 24 0;
#X connect 27 0 26 1;
#X connect 28 0 27 0;
#X connect 29 0 27 0;
#X connect 32 0 47 0;
#X connect 32 0 31 0;
#X connect 33 0 47 0;
#X connect 33 0 31 0;
#X connect 34 0 32 0;
#X connect 34 1 33 0;
#X connect 34 2 36 0;
#X connect 34 3 37 0;
#X connect 34 4 38 0;
#X connect 34 5 39 0;
#X connect 34 6 40 0;
#X connect 34 7 41 0;
#X connect 34 8 42 0;
#X connect 34 9 43 0;
#X connect 34 10 55 0;
#X connect 34 11 44 0;
#X connect 34 12 45 0;
#X connect 34 13 46 0;
#X connect 34 14 50 0;
#X connect 34 15 51 0;
#X connect 34 16 52 0;
#X connect 34 17 53 0;
#X connect 34 18 54 0;
#X connect 34 19 56 0;
#X connect 35 0 34 0;
#X connect 36 0 47 0;
#X connect 36 0 31 0;
#X connect 37 0 47 0;
#X connect 37 0 31 0;
#X connect 38 0 47 0;
#X connect 38 0 31 0;
#X connect 39 0 47 0;
#X connect 39 0 31 0;
#X connect 40 0 47 0;
#X connect 40 0 31 0;
#X connect 41 0 47 0;
#X connect 41 0 31 0;
#X connect 42 0 47 0;
#X connect 42 0 31 0;
#X connect 43 0 47 0;
#X connect 43 0 31 0;
#X connect 44 0 47 0;
#X connect 44 0 31 0;
#X connect 45 0 47 0;
#X connect 45 0 31 0;
#X connect 46 0 47 0;
#X connect 46 0 31 0;
#X connect 47 0 48 0;
#X connect 48 0 49 0;
#X connect 50 0 31 0;
#X connect 51 0 31 0;
#X connect 52 0 31 0;
#X connect 53 0 31 0;
#X connect 54 0 31 0;
#X connect 55 0 47 0;
#X connect 55 0 31 0;
#X connect 56 0 31 0;
#X connect 57 0 58 0;
#X connect 58 0 18 0;
#X restore 720 10 pd tonality;
#X floatatom 8 128 5 0 0 1 note_per_ottava notes_in_octave - 0;
#N canvas 779 502 450 300 sequence_control 0;
#X obj 44 107 outlet;
#X obj 12 14 ctlin 25;
#X obj 80 14 ctlin 41;
#X obj 80 38 sel 127;
#X obj 12 38 sel 127;
#X obj 12 59 bng 15 250 50 0 empty empty empty 17 7 0 10 #fcfcfc #000000 #000000;
#X obj 80 59 bng 15 250 50 0 empty empty empty 17 7 0 10 #fcfcfc #000000 #000000;
#X msg 12 76 1;
#X msg 80 76 0;
#X connect 1 0 4 0;
#X connect 2 0 3 0;
#X connect 3 0 6 0;
#X connect 4 0 5 0;
#X connect 5 0 7 0;
#X connect 6 0 8 0;
#X connect 7 0 0 0;
#X connect 8 0 0 0;
#X restore 215 12 pd sequence_control;
#X obj 215 106 r 01/16;
#X obj 270 106 r 05/16;
#X obj 380 106 r 13/16;
#X obj 215 128 bng 22 250 50 0 empty empty empty 17 7 0 10 #fcfcfc #9c00fc #000000;
#X obj 325 128 bng 22 250 50 0 empty empty empty 17 7 0 10 #fcfcfc #9c00fc #000000;
#X obj 270 128 bng 22 250 50 0 empty empty empty 17 7 0 10 #fcfcfc #9c00fc #000000;
#X obj 380 128 bng 22 250 50 0 empty empty empty 17 7 0 10 #fcfcfc #9c00fc #000000;
#X obj 325 106 r 09/16;
#N canvas 2 31 1912 1011 melody 0;
#X obj 18 12 r 01/16;
#X obj 18 36 random 10;
#X obj 18 61 sel 0 1 2 3 4 5 6 7 8 9;
#N canvas 126 104 1716 775 mel_pattern_1 0;
#X obj 357 26 inlet;
#X obj 51 127 s mel01;
#X obj 91 149 s mel02;
#X obj 131 171 s mel03;
#X obj 171 193 s mel04;
#X obj 211 127 s mel05;
#X obj 251 149 s mel06;
#X obj 291 171 s mel07;
#X obj 331 193 s mel08;
#X obj 371 127 s mel09;
#X obj 411 149 s mel10;
#X obj 451 171 s mel11;
#X obj 491 193 s mel12;
#X obj 531 127 s mel13;
#X obj 571 149 s mel14;
#X obj 611 171 s mel15;
#X obj 651 193 s mel16;
#X msg 51 100 1;
#X msg 91 100 0;
#X msg 171 100 0;
#X msg 251 100 0;
#X msg 291 100 0;
#X msg 331 100 0;
#X msg 371 100 1;
#X msg 411 100 0;
#X msg 451 100 0;
#X msg 491 100 0;
#X msg 531 100 1;
#X msg 571 100 0;
#X msg 651 100 0;
#X msg 131 100 1;
#X msg 211 100 0;
#X msg 611 100 1;
#X connect 0 0 17 0;
#X connect 0 0 29 0;
#X connect 0 0 32 0;
#X connect 0 0 28 0;
#X connect 0 0 27 0;
#X connect 0 0 26 0;
#X connect 0 0 25 0;
#X connect 0 0 24 0;
#X connect 0 0 23 0;
#X connect 0 0 22 0;
#X connect 0 0 21 0;
#X connect 0 0 20 0;
#X connect 0 0 31 0;
#X connect 0 0 19 0;
#X connect 0 0 30 0;
#X connect 0 0 18 0;
#X connect 17 0 1 0;
#X connect 18 0 2 0;
#X connect 19 0 4 0;
#X connect 20 0 6 0;
#X connect 21 0 7 0;
#X connect 22 0 8 0;
#X connect 23 0 9 0;
#X connect 24 0 10 0;
#X connect 25 0 11 0;
#X connect 26 0 12 0;
#X connect 27 0 13 0;
#X connect 28 0 14 0;
#X connect 29 0 16 0;
#X connect 30 0 3 0;
#X connect 31 0 5 0;
#X connect 32 0 15 0;
#X restore 33 105 pd mel_pattern_1;
#N canvas 126 104 1716 775 mel_pattern_2 0;
#X obj 357 26 inlet;
#X obj 51 127 s mel01;
#X obj 91 149 s mel02;
#X obj 131 171 s mel03;
#X obj 171 193 s mel04;
#X obj 211 127 s mel05;
#X obj 251 149 s mel06;
#X obj 291 171 s mel07;
#X obj 331 193 s mel08;
#X obj 371 127 s mel09;
#X obj 411 149 s mel10;
#X obj 451 171 s mel11;
#X obj 491 193 s mel12;
#X obj 531 127 s mel13;
#X obj 571 149 s mel14;
#X obj 611 171 s mel15;
#X obj 651 193 s mel16;
#X msg 51 100 1;
#X msg 91 100 0;
#X msg 131 100 0;
#X msg 171 100 0;
#X msg 211 100 1;
#X msg 251 100 0;
#X msg 331 100 0;
#X msg 371 100 1;
#X msg 411 100 0;
#X msg 491 100 0;
#X msg 531 100 1;
#X msg 571 100 0;
#X msg 611 100 0;
#X msg 651 100 0;
#X msg 291 100 1;
#X msg 451 100 1;
#X connect 0 0 17 0;
#X connect 0 0 30 0;
#X connect 0 0 29 0;
#X connect 0 0 28 0;
#X connect 0 0 27 0;
#X connect 0 0 26 0;
#X connect 0 0 32 0;
#X connect 0 0 25 0;
#X connect 0 0 24 0;
#X connect 0 0 23 0;
#X connect 0 0 31 0;
#X connect 0 0 22 0;
#X connect 0 0 21 0;
#X connect 0 0 20 0;
#X connect 0 0 19 0;
#X connect 0 0 18 0;
#X connect 17 0 1 0;
#X connect 18 0 2 0;
#X connect 19 0 3 0;
#X connect 20 0 4 0;
#X connect 21 0 5 0;
#X connect 22 0 6 0;
#X connect 23 0 8 0;
#X connect 24 0 9 0;
#X connect 25 0 10 0;
#X connect 26 0 12 0;
#X connect 27 0 13 0;
#X connect 28 0 14 0;
#X connect 29 0 15 0;
#X connect 30 0 16 0;
#X connect 31 0 7 0;
#X connect 32 0 11 0;
#X restore 49 127 pd mel_pattern_2;
#N canvas 113 90 1587 637 mel_pattern_3 0;
#X obj 357 26 inlet;
#X obj 51 127 s mel01;
#X obj 91 149 s mel02;
#X obj 131 171 s mel03;
#X obj 171 193 s mel04;
#X obj 211 127 s mel05;
#X obj 251 149 s mel06;
#X obj 291 171 s mel07;
#X obj 331 193 s mel08;
#X obj 371 127 s mel09;
#X obj 411 149 s mel10;
#X obj 451 171 s mel11;
#X obj 491 193 s mel12;
#X obj 531 127 s mel13;
#X obj 571 149 s mel14;
#X obj 611 171 s mel15;
#X obj 651 193 s mel16;
#X msg 51 100 1;
#X msg 171 100 0;
#X msg 251 100 0;
#X msg 291 100 0;
#X msg 331 100 0;
#X msg 371 100 1;
#X msg 411 100 0;
#X msg 491 100 0;
#X msg 571 100 0;
#X msg 451 100 1;
#X msg 531 100 0;
#X msg 611 100 1;
#X msg 91 100 0;
#X msg 131 100 0;
#X msg 211 100 1;
#X msg 651 100 1;
#X connect 0 0 17 0;
#X connect 0 0 32 0;
#X connect 0 0 28 0;
#X connect 0 0 25 0;
#X connect 0 0 27 0;
#X connect 0 0 24 0;
#X connect 0 0 26 0;
#X connect 0 0 23 0;
#X connect 0 0 22 0;
#X connect 0 0 21 0;
#X connect 0 0 20 0;
#X connect 0 0 19 0;
#X connect 0 0 31 0;
#X connect 0 0 18 0;
#X connect 0 0 30 0;
#X connect 0 0 29 0;
#X connect 17 0 1 0;
#X connect 18 0 4 0;
#X connect 19 0 6 0;
#X connect 20 0 7 0;
#X connect 21 0 8 0;
#X connect 22 0 9 0;
#X connect 23 0 10 0;
#X connect 24 0 12 0;
#X connect 25 0 14 0;
#X connect 26 0 11 0;
#X connect 27 0 13 0;
#X connect 28 0 15 0;
#X connect 29 0 2 0;
#X connect 30 0 3 0;
#X connect 31 0 5 0;
#X connect 32 0 16 0;
#X restore 65 149 pd mel_pattern_3;
#N canvas 126 104 1716 775 mel_pattern_4 0;
#X obj 357 26 inlet;
#X obj 51 127 s mel01;
#X obj 91 149 s mel02;
#X obj 131 171 s mel03;
#X obj 171 193 s mel04;
#X obj 211 127 s mel05;
#X obj 251 149 s mel06;
#X obj 291 171 s mel07;
#X obj 331 193 s mel08;
#X obj 371 127 s mel09;
#X obj 411 149 s mel10;
#X obj 451 171 s mel11;
#X obj 491 193 s mel12;
#X obj 531 127 s mel13;
#X obj 571 149 s mel14;
#X obj 611 171 s mel15;
#X obj 651 193 s mel16;
#X msg 51 100 1;
#X msg 91 100 0;
#X msg 171 100 0;
#X msg 211 100 1;
#X msg 251 100 0;
#X msg 331 100 0;
#X msg 371 100 1;
#X msg 411 100 0;
#X msg 491 100 0;
#X msg 531 100 1;
#X msg 571 100 0;
#X msg 651 100 0;
#X msg 131 100 1;
#X msg 291 100 1;
#X msg 451 100 1;
#X msg 611 100 1;
#X connect 0 0 17 0;
#X connect 0 0 28 0;
#X connect 0 0 32 0;
#X connect 0 0 27 0;
#X connect 0 0 26 0;
#X connect 0 0 25 0;
#X connect 0 0 31 0;
#X connect 0 0 24 0;
#X connect 0 0 23 0;
#X connect 0 0 22 0;
#X connect 0 0 30 0;
#X connect 0 0 21 0;
#X connect 0 0 20 0;
#X connect 0 0 19 0;
#X connect 0 0 29 0;
#X connect 0 0 18 0;
#X connect 17 0 1 0;
#X connect 18 0 2 0;
#X connect 19 0 4 0;
#X connect 20 0 5 0;
#X connect 21 0 6 0;
#X connect 22 0 8 0;
#X connect 23 0 9 0;
#X connect 24 0 10 0;
#X connect 25 0 12 0;
#X connect 26 0 13 0;
#X connect 27 0 14 0;
#X connect 28 0 16 0;
#X connect 29 0 3 0;
#X connect 30 0 7 0;
#X connect 31 0 11 0;
#X connect 32 0 15 0;
#X restore 81 171 pd mel_pattern_4;
#N canvas 126 104 1716 775 mel_pattern_5 0;
#X obj 357 26 inlet;
#X obj 51 127 s mel01;
#X obj 91 149 s mel02;
#X obj 131 171 s mel03;
#X obj 171 193 s mel04;
#X obj 211 127 s mel05;
#X obj 251 149 s mel06;
#X obj 291 171 s mel07;
#X obj 331 193 s mel08;
#X obj 371 127 s mel09;
#X obj 411 149 s mel10;
#X obj 451 171 s mel11;
#X obj 491 193 s mel12;
#X obj 531 127 s mel13;
#X obj 571 149 s mel14;
#X obj 611 171 s mel15;
#X obj 651 193 s mel16;
#X msg 51 100 1;
#X msg 91 100 0;
#X msg 251 100 0;
#X msg 331 100 0;
#X msg 411 100 0;
#X msg 491 100 0;
#X msg 611 100 0;
#X msg 651 100 0;
#X msg 291 100 1;
#X msg 131 100 0;
#X msg 171 100 1;
#X msg 211 100 0;
#X msg 371 100 0;
#X msg 451 100 1;
#X msg 531 100 0;
#X msg 571 100 1;
#X connect 0 0 17 0;
#X connect 0 0 24 0;
#X connect 0 0 23 0;
#X connect 0 0 32 0;
#X connect 0 0 31 0;
#X connect 0 0 22 0;
#X connect 0 0 30 0;
#X connect 0 0 21 0;
#X connect 0 0 29 0;
#X connect 0 0 20 0;
#X connect 0 0 25 0;
#X connect 0 0 19 0;
#X connect 0 0 28 0;
#X connect 0 0 27 0;
#X connect 0 0 26 0;
#X connect 0 0 18 0;
#X connect 17 0 1 0;
#X connect 18 0 2 0;
#X connect 19 0 6 0;
#X connect 20 0 8 0;
#X connect 21 0 10 0;
#X connect 22 0 12 0;
#X connect 23 0 15 0;
#X connect 24 0 16 0;
#X connect 25 0 7 0;
#X connect 26 0 3 0;
#X connect 27 0 4 0;
#X connect 28 0 5 0;
#X connect 29 0 9 0;
#X connect 30 0 11 0;
#X connect 31 0 13 0;
#X connect 32 0 14 0;
#X restore 98 193 pd mel_pattern_5;
#N canvas 126 104 1716 775 mel_pattern_6 0;
#X obj 357 26 inlet;
#X obj 51 127 s mel01;
#X obj 91 149 s mel02;
#X obj 131 171 s mel03;
#X obj 171 193 s mel04;
#X obj 211 127 s mel05;
#X obj 251 149 s mel06;
#X obj 291 171 s mel07;
#X obj 331 193 s mel08;
#X obj 371 127 s mel09;
#X obj 411 149 s mel10;
#X obj 451 171 s mel11;
#X obj 491 193 s mel12;
#X obj 531 127 s mel13;
#X obj 571 149 s mel14;
#X obj 611 171 s mel15;
#X obj 651 193 s mel16;
#X msg 51 100 1;
#X msg 91 100 0;
#X msg 131 100 0;
#X msg 251 100 0;
#X msg 371 100 1;
#X msg 411 100 0;
#X msg 451 100 0;
#X msg 491 100 0;
#X msg 571 100 0;
#X msg 651 100 0;
#X msg 211 100 0;
#X msg 531 100 0;
#X msg 171 100 1;
#X msg 291 100 1;
#X msg 331 100 1;
#X msg 611 100 1;
#X connect 0 0 17 0;
#X connect 0 0 26 0;
#X connect 0 0 32 0;
#X connect 0 0 25 0;
#X connect 0 0 28 0;
#X connect 0 0 24 0;
#X connect 0 0 23 0;
#X connect 0 0 22 0;
#X connect 0 0 21 0;
#X connect 0 0 31 0;
#X connect 0 0 30 0;
#X connect 0 0 20 0;
#X connect 0 0 27 0;
#X connect 0 0 29 0;
#X connect 0 0 19 0;
#X connect 0 0 18 0;
#X connect 17 0 1 0;
#X connect 18 0 2 0;
#X connect 19 0 3 0;
#X connect 20 0 6 0;
#X connect 21 0 9 0;
#X connect 22 0 10 0;
#X connect 23 0 11 0;
#X connect 24 0 12 0;
#X connect 25 0 14 0;
#X connect 26 0 16 0;
#X connect 27 0 5 0;
#X connect 28 0 13 0;
#X connect 29 0 4 0;
#X connect 30 0 7 0;
#X connect 31 0 8 0;
#X connect 32 0 15 0;
#X restore 113 215 pd mel_pattern_6;
#N canvas 126 104 1716 775 mel_pattern_7 0;
#X obj 357 26 inlet;
#X obj 51 127 s mel01;
#X obj 91 149 s mel02;
#X obj 131 171 s mel03;
#X obj 171 193 s mel04;
#X obj 211 127 s mel05;
#X obj 251 149 s mel06;
#X obj 291 171 s mel07;
#X obj 331 193 s mel08;
#X obj 371 127 s mel09;
#X obj 411 149 s mel10;
#X obj 451 171 s mel11;
#X obj 491 193 s mel12;
#X obj 531 127 s mel13;
#X obj 571 149 s mel14;
#X obj 611 171 s mel15;
#X obj 651 193 s mel16;
#X msg 51 100 1;
#X msg 91 100 0;
#X msg 131 100 0;
#X msg 171 100 0;
#X msg 251 100 0;
#X msg 291 100 0;
#X msg 331 100 0;
#X msg 411 100 0;
#X msg 451 100 0;
#X msg 571 100 0;
#X msg 651 100 0;
#X msg 211 100 0;
#X msg 611 100 1;
#X msg 371 100 1;
#X msg 531 100 0;
#X msg 491 100 1;
#X connect 0 0 17 0;
#X connect 0 0 27 0;
#X connect 0 0 29 0;
#X connect 0 0 26 0;
#X connect 0 0 31 0;
#X connect 0 0 32 0;
#X connect 0 0 25 0;
#X connect 0 0 24 0;
#X connect 0 0 30 0;
#X connect 0 0 23 0;
#X connect 0 0 22 0;
#X connect 0 0 21 0;
#X connect 0 0 28 0;
#X connect 0 0 20 0;
#X connect 0 0 19 0;
#X connect 0 0 18 0;
#X connect 17 0 1 0;
#X connect 18 0 2 0;
#X connect 19 0 3 0;
#X connect 20 0 4 0;
#X connect 21 0 6 0;
#X connect 22 0 7 0;
#X connect 23 0 8 0;
#X connect 24 0 10 0;
#X connect 25 0 11 0;
#X connect 26 0 14 0;
#X connect 27 0 16 0;
#X connect 28 0 5 0;
#X connect 29 0 15 0;
#X connect 30 0 9 0;
#X connect 31 0 13 0;
#X connect 32 0 12 0;
#X restore 128 237 pd mel_pattern_7;
#N canvas 126 104 1716 775 mel_pattern_8 0;
#X obj 357 26 inlet;
#X obj 51 127 s mel01;
#X obj 91 149 s mel02;
#X obj 131 171 s mel03;
#X obj 171 193 s mel04;
#X obj 211 127 s mel05;
#X obj 251 149 s mel06;
#X obj 291 171 s mel07;
#X obj 331 193 s mel08;
#X obj 371 127 s mel09;
#X obj 411 149 s mel10;
#X obj 451 171 s mel11;
#X obj 491 193 s mel12;
#X obj 531 127 s mel13;
#X obj 571 149 s mel14;
#X obj 611 171 s mel15;
#X obj 651 193 s mel16;
#X msg 51 100 1;
#X msg 211 100 1;
#X msg 251 100 0;
#X msg 331 100 0;
#X msg 371 100 1;
#X msg 411 100 0;
#X msg 491 100 0;
#X msg 531 100 1;
#X msg 571 100 0;
#X msg 611 100 0;
#X msg 131 100 1;
#X msg 91 100 1;
#X msg 291 100 0;
#X msg 451 100 1;
#X msg 651 100 0;
#X msg 171 100 0;
#X connect 0 0 17 0;
#X connect 0 0 31 0;
#X connect 0 0 26 0;
#X connect 0 0 25 0;
#X connect 0 0 24 0;
#X connect 0 0 23 0;
#X connect 0 0 30 0;
#X connect 0 0 22 0;
#X connect 0 0 21 0;
#X connect 0 0 20 0;
#X connect 0 0 29 0;
#X connect 0 0 19 0;
#X connect 0 0 18 0;
#X connect 0 0 32 0;
#X connect 0 0 27 0;
#X connect 0 0 28 0;
#X connect 17 0 1 0;
#X connect 18 0 5 0;
#X connect 19 0 6 0;
#X connect 20 0 8 0;
#X connect 21 0 9 0;
#X connect 22 0 10 0;
#X connect 23 0 12 0;
#X connect 24 0 13 0;
#X connect 25 0 14 0;
#X connect 26 0 15 0;
#X connect 27 0 3 0;
#X connect 28 0 2 0;
#X connect 29 0 7 0;
#X connect 30 0 11 0;
#X connect 31 0 16 0;
#X connect 32 0 4 0;
#X restore 144 259 pd mel_pattern_8;
#N canvas 126 104 1716 775 mel_pattern_9 0;
#X obj 357 26 inlet;
#X obj 51 127 s mel01;
#X obj 91 149 s mel02;
#X obj 131 171 s mel03;
#X obj 171 193 s mel04;
#X obj 211 127 s mel05;
#X obj 251 149 s mel06;
#X obj 291 171 s mel07;
#X obj 331 193 s mel08;
#X obj 371 127 s mel09;
#X obj 411 149 s mel10;
#X obj 451 171 s mel11;
#X obj 491 193 s mel12;
#X obj 531 127 s mel13;
#X obj 571 149 s mel14;
#X obj 611 171 s mel15;
#X obj 651 193 s mel16;
#X msg 51 100 1;
#X msg 91 100 0;
#X msg 131 100 0;
#X msg 171 100 0;
#X msg 211 100 1;
#X msg 251 100 0;
#X msg 371 100 1;
#X msg 411 100 0;
#X msg 451 100 0;
#X msg 491 100 0;
#X msg 531 100 1;
#X msg 571 100 0;
#X msg 611 100 0;
#X msg 291 100 1;
#X msg 331 100 1;
#X msg 651 100 1;
#X connect 0 0 17 0;
#X connect 0 0 32 0;
#X connect 0 0 29 0;
#X connect 0 0 28 0;
#X connect 0 0 27 0;
#X connect 0 0 26 0;
#X connect 0 0 25 0;
#X connect 0 0 24 0;
#X connect 0 0 23 0;
#X connect 0 0 31 0;
#X connect 0 0 30 0;
#X connect 0 0 22 0;
#X connect 0 0 21 0;
#X connect 0 0 20 0;
#X connect 0 0 19 0;
#X connect 0 0 18 0;
#X connect 17 0 1 0;
#X connect 18 0 2 0;
#X connect 19 0 3 0;
#X connect 20 0 4 0;
#X connect 21 0 5 0;
#X connect 22 0 6 0;
#X connect 23 0 9 0;
#X connect 24 0 10 0;
#X connect 25 0 11 0;
#X connect 26 0 12 0;
#X connect 27 0 13 0;
#X connect 28 0 14 0;
#X connect 29 0 15 0;
#X connect 30 0 7 0;
#X connect 31 0 8 0;
#X connect 32 0 16 0;
#X restore 160 281 pd mel_pattern_9;
#N canvas 126 104 1716 775 mel_pattern_0 0;
#X obj 357 26 inlet;
#X obj 51 127 s mel01;
#X obj 91 149 s mel02;
#X obj 131 171 s mel03;
#X obj 171 193 s mel04;
#X obj 211 127 s mel05;
#X obj 251 149 s mel06;
#X obj 291 171 s mel07;
#X obj 331 193 s mel08;
#X obj 371 127 s mel09;
#X obj 411 149 s mel10;
#X obj 451 171 s mel11;
#X obj 491 193 s mel12;
#X obj 531 127 s mel13;
#X obj 571 149 s mel14;
#X obj 611 171 s mel15;
#X obj 651 193 s mel16;
#X msg 51 100 1;
#X msg 91 100 0;
#X msg 131 100 0;
#X msg 171 100 0;
#X msg 211 100 1;
#X msg 251 100 0;
#X msg 291 100 0;
#X msg 331 100 0;
#X msg 371 100 1;
#X msg 411 100 0;
#X msg 451 100 0;
#X msg 491 100 0;
#X msg 531 100 1;
#X msg 571 100 0;
#X msg 611 100 0;
#X msg 651 100 0;
#X connect 0 0 17 0;
#X connect 0 0 32 0;
#X connect 0 0 31 0;
#X connect 0 0 30 0;
#X connect 0 0 29 0;
#X connect 0 0 28 0;
#X connect 0 0 27 0;
#X connect 0 0 26 0;
#X connect 0 0 25 0;
#X connect 0 0 24 0;
#X connect 0 0 23 0;
#X connect 0 0 22 0;
#X connect 0 0 21 0;
#X connect 0 0 20 0;
#X connect 0 0 19 0;
#X connect 0 0 18 0;
#X connect 17 0 1 0;
#X connect 18 0 2 0;
#X connect 19 0 3 0;
#X connect 20 0 4 0;
#X connect 21 0 5 0;
#X connect 22 0 6 0;
#X connect 23 0 7 0;
#X connect 24 0 8 0;
#X connect 25 0 9 0;
#X connect 26 0 10 0;
#X connect 27 0 11 0;
#X connect 28 0 12 0;
#X connect 29 0 13 0;
#X connect 30 0 14 0;
#X connect 31 0 15 0;
#X connect 32 0 16 0;
#X restore 18 83 pd mel_pattern_0;
#X obj 56 353 r mel01;
#X obj 111 353 r mel02;
#X obj 166 353 r mel03;
#X obj 221 353 r mel04;
#X obj 276 353 r mel05;
#X obj 331 353 r mel06;
#X obj 386 353 r mel07;
#X obj 441 353 r mel08;
#X obj 496 353 r mel09;
#X obj 551 353 r mel10;
#X obj 606 353 r mel11;
#X obj 661 353 r mel12;
#X obj 716 353 r mel13;
#X obj 771 353 r mel14;
#X obj 826 353 r mel15;
#X obj 881 353 r mel16;
#X obj 56 379 tgl 17 0 empty empty empty 17 7 0 10 #fcfcfc #000000 #000000 0 1;
#X obj 111 379 tgl 17 0 empty empty empty 17 7 0 10 #fcfcfc #000000 #000000 0 1;
#X obj 166 379 tgl 17 0 empty empty empty 17 7 0 10 #fcfcfc #000000 #000000 0 1;
#X obj 221 379 tgl 17 0 empty empty empty 17 7 0 10 #fcfcfc #000000 #000000 0 1;
#X obj 331 379 tgl 17 0 empty empty empty 17 7 0 10 #fcfcfc #000000 #000000 0 1;
#X obj 386 379 tgl 17 0 empty empty empty 17 7 0 10 #fcfcfc #000000 #000000 0 1;
#X obj 441 379 tgl 17 0 empty empty empty 17 7 0 10 #fcfcfc #000000 #000000 0 1;
#X obj 276 379 tgl 17 0 empty empty empty 17 7 0 10 #fcfcfc #000000 #000000 0 1;
#X obj 496 379 tgl 17 0 empty empty empty 17 7 0 10 #fcfcfc #000000 #000000 0 1;
#X obj 551 379 tgl 17 0 empty empty empty 17 7 0 10 #fcfcfc #000000 #000000 0 1;
#X obj 606 379 tgl 17 0 empty empty empty 17 7 0 10 #fcfcfc #000000 #000000 0 1;
#X obj 661 379 tgl 17 0 empty empty empty 17 7 0 10 #fcfcfc #000000 #000000 0 1;
#X obj 716 379 tgl 17 0 empty empty empty 17 7 0 10 #fcfcfc #000000 #000000 0 1;
#X obj 771 379 tgl 17 0 empty empty empty 17 7 0 10 #fcfcfc #000000 #000000 0 1;
#X obj 826 379 tgl 17 0 empty empty empty 17 7 0 10 #fcfcfc #000000 #000000 0 1;
#X obj 881 379 tgl 17 0 empty empty empty 17 7 0 10 #fcfcfc #000000 #000000 0 1;
#X obj 17 471 spigot;
#X obj 17 414 r 01/16;
#X obj 72 414 r 02/16;
#X obj 127 414 r 03/16;
#X obj 182 414 r 04/16;
#X obj 237 414 r 05/16;
#X obj 292 414 r 06/16;
#X obj 347 414 r 07/16;
#X obj 402 414 r 08/16;
#X obj 457 414 r 09/16;
#X obj 512 414 r 10/16;
#X obj 567 414 r 11/16;
#X obj 622 414 r 12/16;
#X obj 677 414 r 13/16;
#X obj 732 414 r 14/16;
#X obj 842 414 r 16/16;
#X obj 787 414 r 15/16;
#X obj 17 439 bng 15 250 50 0 empty empty empty 0 -10 0 12 #fcfcfc #9c00fc #000000;
#X obj 72 439 bng 15 250 50 0 empty empty empty 0 -10 0 12 #fcfcfc #000000 #000000;
#X obj 127 439 bng 15 250 50 0 empty empty empty 0 -10 0 12 #fcfcfc #000000 #000000;
#X obj 182 439 bng 15 250 50 0 empty empty empty 0 -10 0 12 #fcfcfc #202020 #000000;
#X obj 237 439 bng 15 250 50 0 empty empty empty 0 -10 0 12 #fcfcfc #9c00fc #000000;
#X obj 292 439 bng 15 250 50 0 empty empty empty 0 -10 0 12 #fcfcfc #000000 #000000;
#X obj 347 439 bng 15 250 50 0 empty empty empty 0 -10 0 12 #fcfcfc #000000 #000000;
#X obj 402 439 bng 15 250 50 0 empty empty empty 0 -10 0 12 #fcfcfc #000000 #000000;
#X obj 457 439 bng 15 250 50 0 empty empty empty 0 -10 0 12 #fcfcfc #9c00fc #000000;
#X obj 512 439 bng 15 250 50 0 empty empty empty 0 -10 0 12 #fcfcfc #000000 #000000;
#X obj 567 439 bng 15 250 50 0 empty empty empty 0 -10 0 12 #fcfcfc #000000 #000000;
#X obj 622 439 bng 15 250 50 0 empty empty empty 0 -10 0 12 #fcfcfc #000000 #000000;
#X obj 677 439 bng 15 250 50 0 empty empty empty 0 -10 0 12 #fcfcfc #9c00fc #000000;
#X obj 732 439 bng 15 250 50 0 empty empty empty 0 -10 0 12 #fcfcfc #000000 #000000;
#X obj 787 439 bng 15 250 50 0 empty empty empty 0 -10 0 12 #fcfcfc #000000 #000000;
#X obj 842 439 bng 15 250 50 0 empty empty empty 0 -10 0 12 #fcfcfc #000000 #000000;
#N canvas -8 -8 1920 997 new_mel_note 0;
#X obj 66 512 outlet;
#X obj 291 47 inlet;
#X obj 515 38 r current_semitone;
#X floatatom 547 92 5 0 0 0 - - - 0;
#X obj 698 43 loadbang;
#X obj 66 464 expr ($f1 * 2) * pow($f2 \, $f3);
#X obj 66 360 r hz;
#X obj 120 360 r note_distance;
#X floatatom 66 488 5 0 0 1 note_freq - - 0;
#X msg 698 68 4;
#X floatatom 273 337 5 0 0 1 new_semitone - - 0;
#X obj 319 404 s current_semitone;
#X obj 291 96 random 6;
#X obj 362 53 / 2;
#X obj 362 77 int;
#X obj 291 71 t b b;
#X floatatom 529 202 8 0 0 0 - - - 0;
#X obj 529 154 expr ($f1 / $f2) * 100;
#X obj 529 225 +;
#X floatatom 529 249 8 0 0 0 - - - 0;
#X obj 529 178 t f b;
#X obj 529 115 +;
#X floatatom 559 226 5 0 0 0 - - - 0;
#X obj 596 201 random 100;
#X obj 529 272 moses 100;
#X obj 273 152 *;
#X floatatom 273 174 5 0 0 0 - - - 0;
#X obj 529 295 bng 15 250 50 0 empty empty empty 17 7 0 10 #fcfcfc #000000 #000000;
#X obj 589 295 bng 15 250 50 0 empty empty empty 17 7 0 10 #fcfcfc #000000 #000000;
#X obj 273 226 +;
#X obj 515 62 t f f;
#X msg 529 314 1;
#X msg 589 314 -1;
#X obj 273 360 t b f f;
#X obj 362 29 r notes_in_scale;
#X obj 358 520 array get;
#X msg 420 497 symbol scale_reference;
#X msg 388 497 1;
#X obj 330 496 t f b b;
#X obj 680 105 r notes_in_scale;
#X obj 326 563 s st_mel;
#X obj 399 563 s st_bas;
#X obj 78 558 s hz_mel;
#X obj 147 534 / 8;
#X obj 147 558 s hz_bas;
#X connect 1 0 15 0;
#X connect 2 0 30 0;
#X connect 3 0 21 1;
#X connect 4 0 9 0;
#X connect 5 0 8 0;
#X connect 6 0 5 0;
#X connect 7 0 5 1;
#X connect 8 0 0 0;
#X connect 8 0 43 0;
#X connect 8 0 42 0;
#X connect 9 0 3 0;
#X connect 10 0 33 0;
#X connect 12 0 21 0;
#X connect 12 0 25 1;
#X connect 13 0 14 0;
#X connect 14 0 12 1;
#X connect 15 1 12 0;
#X connect 16 0 18 0;
#X connect 17 0 20 0;
#X connect 18 0 19 0;
#X connect 19 0 24 0;
#X connect 20 0 16 0;
#X connect 20 1 23 0;
#X connect 21 0 17 0;
#X connect 23 0 18 1;
#X connect 23 0 22 0;
#X connect 24 0 27 0;
#X connect 24 1 28 0;
#X connect 25 0 26 0;
#X connect 26 0 29 0;
#X connect 27 0 31 0;
#X connect 28 0 32 0;
#X connect 29 0 10 0;
#X connect 30 0 29 1;
#X connect 30 1 3 0;
#X connect 31 0 25 0;
#X connect 32 0 25 0;
#X connect 33 0 5 0;
#X connect 33 1 38 0;
#X connect 33 2 11 0;
#X connect 34 0 13 0;
#X connect 35 0 5 2;
#X connect 35 0 40 0;
#X connect 35 0 41 0;
#X connect 36 0 35 2;
#X connect 37 0 35 1;
#X connect 38 0 35 0;
#X connect 38 1 37 0;
#X connect 38 2 36 0;
#X connect 39 0 17 1;
#X connect 43 0 44 0;
#X restore 366 551 pd new_mel_note;
#X obj 366 585 synth_melody;
#X obj 72 471 spigot;
#X obj 127 471 spigot;
#X obj 182 471 spigot;
#X obj 237 471 spigot;
#X obj 292 471 spigot;
#X obj 347 471 spigot;
#X obj 402 471 spigot;
#X obj 457 471 spigot;
#X obj 512 471 spigot;
#X obj 567 471 spigot;
#X obj 622 471 spigot;
#X obj 677 471 spigot;
#X obj 732 471 spigot;
#X obj 787 471 spigot;
#X obj 842 471 spigot;
#X obj 314 609 synth_bass;
#X obj 314 585 / 8;
#X connect 0 0 1 0;
#X connect 1 0 2 0;
#X connect 2 0 12 0;
#X connect 2 1 3 0;
#X connect 2 2 4 0;
#X connect 2 3 5 0;
#X connect 2 4 6 0;
#X connect 2 5 7 0;
#X connect 2 6 8 0;
#X connect 2 7 9 0;
#X connect 2 8 10 0;
#X connect 2 9 11 0;
#X connect 13 0 29 0;
#X connect 14 0 30 0;
#X connect 15 0 31 0;
#X connect 16 0 32 0;
#X connect 17 0 36 0;
#X connect 18 0 33 0;
#X connect 19 0 34 0;
#X connect 20 0 35 0;
#X connect 21 0 37 0;
#X connect 22 0 38 0;
#X connect 23 0 39 0;
#X connect 24 0 40 0;
#X connect 25 0 41 0;
#X connect 26 0 42 0;
#X connect 27 0 43 0;
#X connect 28 0 44 0;
#X connect 29 0 45 1;
#X connect 30 0 80 1;
#X connect 31 0 81 1;
#X connect 32 0 82 1;
#X connect 33 0 84 1;
#X connect 34 0 85 1;
#X connect 35 0 86 1;
#X connect 36 0 83 1;
#X connect 37 0 87 1;
#X connect 38 0 88 1;
#X connect 39 0 89 1;
#X connect 40 0 90 1;
#X connect 41 0 91 1;
#X connect 42 0 92 1;
#X connect 43 0 93 1;
#X connect 44 0 94 1;
#X connect 45 0 78 0;
#X connect 46 0 62 0;
#X connect 47 0 63 0;
#X connect 48 0 64 0;
#X connect 49 0 65 0;
#X connect 50 0 66 0;
#X connect 51 0 67 0;
#X connect 52 0 68 0;
#X connect 53 0 69 0;
#X connect 54 0 70 0;
#X connect 55 0 71 0;
#X connect 56 0 72 0;
#X connect 57 0 73 0;
#X connect 58 0 74 0;
#X connect 59 0 75 0;
#X connect 60 0 77 0;
#X connect 61 0 76 0;
#X connect 62 0 45 0;
#X connect 63 0 80 0;
#X connect 64 0 81 0;
#X connect 65 0 82 0;
#X connect 66 0 83 0;
#X connect 67 0 84 0;
#X connect 68 0 85 0;
#X connect 69 0 86 0;
#X connect 70 0 87 0;
#X connect 71 0 88 0;
#X connect 72 0 89 0;
#X connect 73 0 90 0;
#X connect 74 0 91 0;
#X connect 75 0 92 0;
#X connect 76 0 93 0;
#X connect 77 0 94 0;
#X connect 78 0 79 0;
#X connect 78 0 96 0;
#X connect 80 0 78 0;
#X connect 81 0 78 0;
#X connect 82 0 78 0;
#X connect 83 0 78 0;
#X connect 84 0 78 0;
#X connect 85 0 78 0;
#X connect 86 0 78 0;
#X connect 87 0 78 0;
#X connect 88 0 78 0;
#X connect 89 0 78 0;
#X connect 90 0 78 0;
#X connect 91 0 78 0;
#X connect 92 0 78 0;
#X connect 93 0 78 0;
#X connect 94 0 78 0;
#X connect 96 0 95 0;
#X restore 881 10 pd melody;
#X floatatom 85 212 8 0 0 0 - - - 0;
#X floatatom 8 212 8 0 0 0 - - - 0;
#X floatatom 162 212 8 0 0 1 frequenze_accordo - - 0;
#X obj 8 191 r hz_nota1;
#X obj 85 191 r hz_nota2;
#X obj 162 191 r hz_nota3;
#X obj 8 235 r st_nota1;
#X obj 85 235 r st_nota2;
#X obj 162 235 r st_nota3;
#X floatatom 8 259 5 0 0 0 - - - 0;
#X floatatom 85 259 5 0 0 0 - - - 0;
#X floatatom 162 259 5 0 0 1 semitoni_accordo - - 0;
#X obj 406 238 r st_mel;
#X floatatom 406 262 5 0 0 0 - - - 0;
#X obj 469 238 r st_bas;
#X floatatom 469 262 5 0 0 1 semitoni_melodia_e_basso - - 0;
#X obj 406 191 r hz_mel;
#X floatatom 406 215 8 0 0 0 - - - 0;
#X obj 469 191 r hz_bas;
#X floatatom 469 215 8 0 0 1 frequenze_melodia_e_basso - - 0;
#N canvas -1652 -3 633 1011 utils 0;
#X obj 99 56 /;
#X floatatom 163 10 8 0 0 0 - bpm - 0;
#X floatatom 99 78 8 0 0 0 MsPB - mspb 0;
#X obj 163 31 t b f;
#X msg 99 32 60000;
#X obj 99 10 loadbang;
#N canvas -1928 -106 1920 997 loader 0;
#X obj 459 16 loadbang;
#X obj 555 19 bng 15 250 50 0 empty empty empty 17 7 0 10 #fcfcfc #000000 #000000;
#X obj 488 203 soundfiler;
#N canvas 0 50 450 250 (subpatch) 0;
#X array kick1 18375 float 0;
#X coords 0 1 18374 -1 200 140 1 0 0;
#X restore 13 263 graph;
#N canvas 0 50 450 250 (subpatch) 0;
#X array kick2 18375 float 0;
#X coords 0 1 18374 -1 200 140 1 0 0;
#X restore 215 263 graph;
#N canvas 0 50 450 250 (subpatch) 0;
#X array snare1 18375 float 0;
#X coords 0 1 18374 -1 200 140 1 0 0;
#X restore 13 423 graph;
#N canvas 0 50 450 250 (subpatch) 0;
#X array snare2 18375 float 0;
#X coords 0 1 18374 -1 200 140 1 0 0;
#X restore 215 423 graph;
#N canvas 0 50 450 250 (subpatch) 0;
#X array snare3 18375 float 0;
#X coords 0 1 18374 -1 200 140 1 0 0;
#X restore 417 423 graph;
#N canvas 0 50 450 250 (subpatch) 0;
#X array snare4 18375 float 0;
#X coords 0 1 18374 -1 200 140 1 0 0;
#X restore 619 423 graph;
#N canvas 0 50 450 250 (subpatch) 0;
#X array ghost1 18375 float 2;
#X coords 0 1 18375 -1 200 140 1 0 0;
#X restore 13 583 graph;
#N canvas 0 50 450 250 (subpatch) 0;
#X array ghost2 18375 float 2;
#X coords 0 1 18375 -1 200 140 1 0 0;
#X restore 215 583 graph;
#N canvas 0 50 450 250 (subpatch) 0;
#X array ghost3 18375 float 2;
#X coords 0 1 18375 -1 200 140 1 0 0;
#X restore 417 583 graph;
#N canvas 0 50 450 250 (subpatch) 0;
#X array ghost4 18375 float 2;
#X coords 0 1 18375 -1 200 140 1 0 0;
#X restore 619 583 graph;
#N canvas 0 50 450 250 (subpatch) 0;
#X array crash1 18286 float 2;
#X coords 0 1 18286 -1 200 140 1 0 0;
#X restore 13 743 graph;
#X msg 37 83 read -resize a_kick1.wav kick1;
#X msg 21 105 read -resize a_kick2.wav kick2;
#X msg 313 83 read -resize a_snare1.wav snare1;
#X msg 300 105 read -resize a_snare1.wav snare2;
#X msg 288 128 read -resize a_snare3.wav snare3;
#X msg 275 150 read -resize a_snare4.wav snare4;
#X msg 600 83 read -resize a_ghost1.wav ghost1;
#X msg 588 105 read -resize a_ghost2.wav ghost2;
#X msg 578 127 read -resize a_ghost3.wav ghost3;
#X msg 568 150 read -resize a_ghost4.wav ghost4;
#X msg 882 82 read -resize a_crash1.wav crash1;
#X connect 0 0 23 0;
#X connect 0 0 22 0;
#X connect 0 0 21 0;
#X connect 0 0 17 0;
#X connect 0 0 15 0;
#X connect 0 0 24 0;
#X connect 0 0 20 0;
#X connect 0 0 14 0;
#X connect 0 0 16 0;
#X connect 0 0 19 0;
#X connect 0 0 18 0;
#X connect 1 0 23 0;
#X connect 1 0 22 0;
#X connect 1 0 21 0;
#X connect 1 0 17 0;
#X connect 1 0 15 0;
#X connect 1 0 24 0;
#X connect 1 0 20 0;
#X connect 1 0 14 0;
#X connect 1 0 16 0;
#X connect 1 0 19 0;
#X connect 1 0 18 0;
#X connect 14 0 2 0;
#X connect 15 0 2 0;
#X connect 16 0 2 0;
#X connect 17 0 2 0;
#X connect 18 0 2 0;
#X connect 19 0 2 0;
#X connect 20 0 2 0;
#X connect 21 0 2 0;
#X connect 22 0 2 0;
#X connect 23 0 2 0;
#X connect 24 0 2 0;
#X restore 28 10 pd loader;
#X floatatom 257 98 8 30 300 1 BPM - bpm 0;
#X msg 257 54 \$1 200;
#X obj 257 76 line;
#X obj 257 10 ctlin 1;
#X obj 257 32 expr ($f1 / 127 * 160) + 60;
#X floatatom 480 76 5 0 0 1 beat\ randomness - beat_randomness 0;
#X obj 480 54 int;
#X obj 480 10 ctlin 9;
#X obj 480 32 expr ($f1 / 127) * 100;
#X connect 0 0 2 0;
#X connect 1 0 3 0;
#X connect 3 0 0 0;
#X connect 3 1 0 1;
#X connect 4 0 0 0;
#X connect 5 0 4 0;
#X connect 8 0 9 0;
#X connect 9 0 7 0;
#X connect 10 0 11 0;
#X connect 11 0 8 0;
#X connect 13 0 12 0;
#X connect 14 0 15 0;
#X connect 15 0 13 0;
#X restore 888 40 pd utils;
#X floatatom 8 12 8 0 0 1 BPM bpm - 0;
#X floatatom 8 33 5 0 0 1 beat_randomness beat_randomness - 0;
#X connect 1 0 0 0;
#X connect 3 0 4 0;
#X connect 4 0 2 0;
#X connect 10 0 14 0;
#X connect 11 0 15 0;
#X connect 12 0 16 0;
#X connect 13 0 17 0;
#X connect 14 0 6 0;
#X connect 15 0 7 0;
#X connect 16 0 8 0;
#X connect 17 0 9 0;
#X connect 22 0 1 0;
#X connect 23 0 26 0;
#X connect 24 0 28 0;
#X connect 25 0 29 0;
#X connect 30 0 27 0;
#X connect 35 0 33 0;
#X connect 36 0 32 0;
#X connect 37 0 34 0;
#X connect 38 0 41 0;
#X connect 39 0 42 0;
#X connect 40 0 43 0;
#X connect 44 0 45 0;
#X connect 46 0 47 0;
#X connect 48 0 49 0;
#X connect 50 0 51 0;
#X coords 0 0 0.25 0.25 0 0 0;
