#N canvas 50 77 1615 788 12;
#X obj 947 26 ctlin;
#X obj 947 50 swap;
#X obj 972 106 route 1 2 3 4 5 6 7 8, f 46;
#X obj 972 196 route 9 10 11 12 13 14 15 16, f 46;
#X obj 972 276 route 17 18 19 20 21 22 23 24, f 46;
#X floatatom 972 150 5 0 0 2 k1 - \$0-to_gui_k1 0;
#X floatatom 1012 150 5 0 0 2 k2 - \$0-to_gui_k2 0;
#X floatatom 1052 150 5 0 0 2 k3 - \$0-to_gui_k3 0;
#X floatatom 1092 150 5 0 0 2 k4 - \$0-to_gui_k4 0;
#X floatatom 1132 150 5 0 0 2 k5 - \$0-to_gui_k5 0;
#X floatatom 1172 150 5 0 0 2 k6 - \$0-to_gui_k6 0;
#X floatatom 1212 150 5 0 0 2 k7 - \$0-to_gui_k7 0;
#X floatatom 1252 150 5 0 0 2 k8 - \$0-to_gui_k8 0;
#X floatatom 972 240 5 0 0 2 k9 - \$0-to_gui_k9 0;
#X floatatom 1012 240 5 0 0 2 k10 - \$0-to_gui_k10 0;
#X floatatom 1052 240 5 0 0 2 k11 - \$0-to_gui_k11 0;
#X floatatom 1092 240 5 0 0 2 k12 - \$0-to_gui_k12 0;
#X floatatom 1132 240 5 0 0 2 k13 - \$0-to_gui_k13 0;
#X floatatom 1172 240 5 0 0 2 k14 - \$0-to_gui_k14 0;
#X floatatom 1212 240 5 0 0 2 k15 - \$0-to_gui_k15 0;
#X floatatom 1252 240 5 0 0 2 k16 - \$0-to_gui_k16 0;
#X floatatom 972 320 5 0 0 2 k17 - \$0-to_gui_k17 0;
#X floatatom 1012 320 5 0 0 2 k18 - \$0-to_gui_k18 0;
#X floatatom 1052 320 5 0 0 2 k19 - \$0-to_gui_k19 0;
#X floatatom 1092 320 5 0 0 2 k20 - \$0-to_gui_k20 0;
#X floatatom 1132 320 5 0 0 2 k21 - \$0-to_gui_k21 0;
#X floatatom 1172 320 5 0 0 2 k22 - \$0-to_gui_k22 0;
#X floatatom 1212 320 5 0 0 2 k23 - \$0-to_gui_k23 0;
#X floatatom 1252 320 5 0 0 2 k24 - \$0-to_gui_k24 0;
#X obj 34 50 hsl 38 19 0 127 0 0 empty \$0-to_gui_k1 empty -2 -10 0 12 #fcfcfc #000000 #000000 0 1;
#X obj 84 50 hsl 38 19 0 127 0 0 empty \$0-to_gui_k2 empty -2 -10 0 12 #fcfcfc #000000 #000000 0 1;
#X obj 134 50 hsl 38 19 0 127 0 0 empty \$0-to_gui_k3 empty -2 -10 0 12 #fcfcfc #000000 #000000 0 1;
#X obj 184 50 hsl 38 19 0 127 0 0 empty \$0-to_gui_k4 empty -2 -10 0 12 #fcfcfc #000000 #000000 0 1;
#X obj 234 50 hsl 38 19 0 127 0 0 empty \$0-to_gui_k5 empty -2 -10 0 12 #fcfcfc #000000 #000000 0 1;
#X obj 284 50 hsl 38 19 0 127 0 0 empty \$0-to_gui_k6 empty -2 -10 0 12 #fcfcfc #000000 #000000 0 1;
#X obj 334 50 hsl 38 19 0 127 0 0 empty \$0-to_gui_k7 empty -2 -10 0 12 #fcfcfc #000000 #000000 0 1;
#X obj 384 50 hsl 38 19 0 127 0 0 empty \$0-to_gui_k8 empty -2 -10 0 12 #fcfcfc #000000 #000000 0 1;
#X obj 34 80 hsl 38 19 0 127 0 0 empty \$0-to_gui_k9 empty -2 -10 0 12 #fcfcfc #000000 #000000 0 1;
#X obj 84 80 hsl 38 19 0 127 0 0 empty \$0-to_gui_k10 empty -2 -10 0 12 #fcfcfc #000000 #000000 0 1;
#X obj 134 80 hsl 38 19 0 127 0 0 empty \$0-to_gui_k11 empty -2 -10 0 12 #fcfcfc #000000 #000000 0 1;
#X obj 184 80 hsl 38 19 0 127 0 0 empty \$0-to_gui_k12 empty -2 -10 0 12 #fcfcfc #000000 #000000 0 1;
#X obj 234 80 hsl 38 19 0 127 0 0 empty \$0-to_gui_k13 empty -2 -10 0 12 #fcfcfc #000000 #000000 0 1;
#X obj 284 80 hsl 38 19 0 127 0 0 empty \$0-to_gui_k14 empty -2 -10 0 12 #fcfcfc #000000 #000000 0 1;
#X obj 334 80 hsl 38 19 0 127 0 0 empty \$0-to_gui_k15 empty -2 -10 0 12 #fcfcfc #000000 #000000 0 1;
#X obj 384 80 hsl 38 19 0 127 0 0 empty \$0-to_gui_k16 empty -2 -10 0 12 #fcfcfc #000000 #000000 0 1;
#X obj 34 110 hsl 38 19 0 127 0 0 empty \$0-to_gui_k17 empty -2 -10 0 12 #fcfcfc #000000 #000000 0 1;
#X obj 84 110 hsl 38 19 0 127 0 0 empty \$0-to_gui_k18 empty -2 -10 0 12 #fcfcfc #000000 #000000 0 1;
#X obj 134 110 hsl 38 19 0 127 0 0 empty \$0-to_gui_k19 empty -2 -10 0 12 #fcfcfc #000000 #000000 0 1;
#X obj 184 110 hsl 38 19 0 127 0 0 empty \$0-to_gui_k20 empty -2 -10 0 12 #fcfcfc #000000 #000000 0 1;
#X obj 234 110 hsl 38 19 0 127 0 0 empty \$0-to_gui_k21 empty -2 -10 0 12 #fcfcfc #000000 #000000 0 1;
#X obj 284 110 hsl 38 19 0 127 0 0 empty \$0-to_gui_k22 empty -2 -10 0 12 #fcfcfc #000000 #000000 0 1;
#X obj 334 110 hsl 38 19 0 127 0 0 empty \$0-to_gui_k23 empty -2 -10 0 12 #fcfcfc #000000 #000000 0 1;
#X obj 384 110 hsl 38 19 0 127 0 0 empty \$0-to_gui_k24 empty -2 -10 0 12 #fcfcfc #000000 #000000 0 1;
#X obj 34 223 vsl 38 162 0 127 0 0 empty \$0-to_gui_s1 empty 0 -9 0 12 #fcfcfc #000000 #000000 0 1;
#X obj 84 223 vsl 38 162 0 127 0 0 empty \$0-to_gui_s2 empty 0 -9 0 12 #fcfcfc #000000 #000000 0 1;
#X obj 134 223 vsl 38 162 0 127 0 0 empty \$0-to_gui_s3 empty 0 -9 0 12 #fcfcfc #000000 #000000 0 1;
#X obj 184 223 vsl 38 162 0 127 0 0 empty \$0-to_gui_s4 empty 0 -9 0 12 #fcfcfc #000000 #000000 0 1;
#X obj 234 223 vsl 38 162 0 127 0 0 empty \$0-to_gui_s5 empty 0 -9 0 12 #fcfcfc #000000 #000000 0 1;
#X obj 284 223 vsl 38 162 0 127 0 0 empty \$0-to_gui_s6 empty 0 -9 0 12 #fcfcfc #000000 #000000 0 1;
#X obj 334 223 vsl 38 162 0 127 0 0 empty \$0-to_gui_s7 empty 0 -9 0 12 #fcfcfc #000000 #000000 0 1;
#X obj 384 223 vsl 38 162 0 127 0 0 empty \$0-to_gui_s8 empty 0 -9 0 12 #fcfcfc #000000 #000000 0 1;
#X obj 434 223 vsl 38 162 0 127 0 0 empty \$0-to_gui_s9 empty 0 -9 0 12 #fcfcfc #000000 #000000 0 1;
#X text 1373 209 KNOBS;
#X text 924 601 ------------------------------------------------------------------------------------------------------------------------;
#X obj 972 666 route 49 50 51 52 53 54 55 56 57, f 52;
#X floatatom 972 710 5 0 0 2 s1 - \$0-to_gui_s1 0;
#X floatatom 1012 710 5 0 0 2 s2 - \$0-to_gui_s2 0;
#X floatatom 1052 710 5 0 0 2 s3 - \$0-to_gui_s3 0;
#X floatatom 1092 710 5 0 0 2 s4 - \$0-to_gui_s4 0;
#X floatatom 1132 710 5 0 0 2 s5 - \$0-to_gui_s5 0;
#X floatatom 1172 710 5 0 0 2 s6 - \$0-to_gui_s6 0;
#X floatatom 1212 710 5 0 0 2 s7 - \$0-to_gui_s7 0;
#X floatatom 1252 710 5 0 0 2 s8 - \$0-to_gui_s8 0;
#X floatatom 1292 710 5 0 0 2 s9 - \$0-to_gui_s9 0;
#X text 1373 679 SLIDERS;
#X obj 43 149 tgl 19 0 empty \$0-to_gui_b1 empty 0 -10 0 12 #fcfcfc #000000 #000000 0 1;
#X obj 93 149 tgl 19 0 empty \$0-to_gui_b2 empty 0 -10 0 12 #fcfcfc #000000 #000000 0 1;
#X obj 143 149 tgl 19 0 empty \$0-to_gui_b3 empty 0 -10 0 12 #fcfcfc #000000 #000000 0 1;
#X obj 193 149 tgl 19 0 empty \$0-to_gui_b4 empty 0 -10 0 12 #fcfcfc #000000 #000000 0 1;
#X obj 243 149 tgl 19 0 empty \$0-to_gui_b5 empty 0 -10 0 12 #fcfcfc #000000 #000000 0 1;
#X obj 293 149 tgl 19 0 empty \$0-to_gui_b6 empty 0 -10 0 12 #fcfcfc #000000 #000000 0 1;
#X obj 343 149 tgl 19 0 empty \$0-to_gui_b7 empty 0 -10 0 12 #fcfcfc #000000 #000000 0 1;
#X obj 393 149 tgl 19 0 empty \$0-to_gui_b8 empty 0 -10 0 12 #fcfcfc #000000 #000000 0 1;
#X obj 43 179 tgl 19 0 empty \$0-to_gui_b9 empty 0 -10 0 12 #fcfcfc #000000 #000000 0 1;
#X obj 93 179 tgl 19 0 empty \$0-to_gui_b10 empty 0 -10 0 12 #fcfcfc #000000 #000000 0 1;
#X obj 143 179 tgl 19 0 empty \$0-to_gui_b11 empty 0 -10 0 12 #fcfcfc #000000 #000000 0 1;
#X obj 193 179 tgl 19 0 empty \$0-to_gui_b12 empty 0 -10 0 12 #fcfcfc #000000 #000000 0 1;
#X obj 243 179 tgl 19 0 empty \$0-to_gui_b13 empty 0 -10 0 12 #fcfcfc #000000 #000000 0 1;
#X obj 293 179 tgl 19 0 empty \$0-to_gui_b14 empty 0 -10 0 12 #fcfcfc #000000 #000000 0 1;
#X obj 343 179 tgl 19 0 empty \$0-to_gui_b15 empty 0 -10 0 12 #fcfcfc #000000 #000000 0 1;
#X obj 393 179 tgl 19 0 empty \$0-to_gui_b16 empty 0 -10 0 12 #fcfcfc #000000 #000000 0 1;
#X text 924 361 ------------------------------------------------------------------------------------------------------------------------;
#N canvas 608 116 702 423 first_raw_buttons 0;
#X obj 58 67 route 25 26 27 28 29 30 31 32;
#X obj 281 67 route 33 34 35 36 37 38 39 40;
#X obj 279 227 list store;
#X obj 59 227 list store;
#X obj 544 62 tgl 19 0 empty empty empty 0 -10 0 12 #fcfcfc #000000 #000000 0 1;
#X obj 279 258 spigot, f 20;
#X obj 59 258 spigot, f 20;
#X obj 544 88 expr $i1 == 0 \; $i1 == 1;
#X obj 57 28 inlet;
#X obj 59 372 outlet;
#X obj 119 372 outlet;
#X obj 179 372 outlet;
#X obj 239 372 outlet;
#X obj 299 372 outlet;
#X obj 359 372 outlet;
#X obj 419 372 outlet;
#X obj 479 372 outlet;
#X obj 59 318 unpack f f f f f f f f, f 60;
#X obj 544 28 inlet;
#X obj 58 119 t b l;
#X obj 281 119 t b l;
#X text 567 62 first row switch;
#N canvas 421 135 807 338 row_B_buttons 0;
#X obj 54 47 inlet;
#X obj 54 91 sel 127;
#X obj 124 47 inlet;
#X obj 124 91 sel 127;
#X obj 194 47 inlet;
#X obj 194 91 sel 127;
#X obj 264 47 inlet;
#X obj 264 91 sel 127;
#X obj 334 47 inlet;
#X obj 334 91 sel 127;
#X obj 404 47 inlet;
#X obj 404 91 sel 127;
#X obj 474 47 inlet;
#X obj 474 91 sel 127;
#X obj 544 47 inlet;
#X obj 544 91 sel 127;
#X text 635 90 <----- Toggle Mode;
#X obj 54 185 tgl 19 0 empty empty empty 0 -10 0 12 #fcfcfc #000000 #000000 0 1;
#X obj 124 185 tgl 19 0 empty empty empty 0 -10 0 12 #fcfcfc #000000 #000000 0 1;
#X obj 194 185 tgl 19 0 empty empty empty 0 -10 0 12 #fcfcfc #000000 #000000 0 1;
#X obj 264 185 tgl 19 0 empty empty empty 0 -10 0 12 #fcfcfc #000000 #000000 0 1;
#X obj 334 185 tgl 19 0 empty empty empty 0 -10 0 12 #fcfcfc #000000 #000000 0 1;
#X obj 404 185 tgl 19 0 empty empty empty 0 -10 0 12 #fcfcfc #000000 #000000 0 1;
#X obj 474 185 tgl 19 0 empty empty empty 0 -10 0 12 #fcfcfc #000000 #000000 0 1;
#X obj 544 185 tgl 19 0 empty empty empty 0 -10 0 12 #fcfcfc #000000 #000000 0 1;
#X obj 55 277 outlet;
#N canvas 68 97 565 267 pak 0;
#X obj 18 15 inlet;
#X obj 66 120 t b f;
#X obj 29 169 pack f f f f f f f f, f 70;
#X obj 136 120 t b f;
#X obj 206 120 t b f;
#X obj 275 120 t b f;
#X obj 344 120 t b f;
#X obj 414 120 t b f;
#X obj 484 120 t b f;
#X obj 66 15 inlet;
#X obj 136 15 inlet;
#X obj 207 15 inlet;
#X obj 276 15 inlet;
#X obj 345 15 inlet;
#X obj 414 15 inlet;
#X obj 487 15 inlet;
#X obj 29 223 outlet;
#X connect 0 0 2 0;
#X connect 1 0 2 0;
#X connect 1 1 2 1;
#X connect 2 0 16 0;
#X connect 3 0 2 0;
#X connect 3 1 2 2;
#X connect 4 0 2 0;
#X connect 4 1 2 3;
#X connect 5 0 2 0;
#X connect 5 1 2 4;
#X connect 6 0 2 0;
#X connect 6 1 2 5;
#X connect 7 0 2 0;
#X connect 7 1 2 6;
#X connect 8 0 2 0;
#X connect 8 1 2 7;
#X connect 9 0 1 0;
#X connect 10 0 3 0;
#X connect 11 0 4 0;
#X connect 12 0 5 0;
#X connect 13 0 6 0;
#X connect 14 0 7 0;
#X connect 15 0 8 0;
#X restore 55 245 pd pak 8;
#X connect 0 0 1 0;
#X connect 1 0 17 0;
#X connect 2 0 3 0;
#X connect 3 0 18 0;
#X connect 4 0 5 0;
#X connect 5 0 19 0;
#X connect 6 0 7 0;
#X connect 7 0 20 0;
#X connect 8 0 9 0;
#X connect 9 0 21 0;
#X connect 10 0 11 0;
#X connect 11 0 22 0;
#X connect 12 0 13 0;
#X connect 13 0 23 0;
#X connect 14 0 15 0;
#X connect 15 0 24 0;
#X connect 17 0 26 0;
#X connect 18 0 26 1;
#X connect 19 0 26 2;
#X connect 20 0 26 3;
#X connect 21 0 26 4;
#X connect 22 0 26 5;
#X connect 23 0 26 6;
#X connect 24 0 26 7;
#X connect 26 0 25 0;
#X restore 281 95 pd row_B_buttons;
#X listbox 284 282 20 0 0 0 - - - 0;
#X listbox 64 282 20 0 0 0 - - - 0;
#X obj 368 167 t f f;
#X obj 368 191 sel 1;
#X obj 416 192 tgl 19 0 empty empty empty 0 -10 0 12 #fcfcfc #000000 #000000 0 1;
#X obj 148 167 t f f;
#X obj 148 191 sel 1;
#X obj 196 192 tgl 19 0 empty empty empty 0 -10 0 12 #fcfcfc #000000 #000000 0 1;
#N canvas 47 74 1337 292 Midi_Mix_Lights 0;
#X obj 61 149 * 127;
#X obj 111 149 * 127;
#X obj 161 149 * 127;
#X obj 211 149 * 127;
#X obj 261 149 * 127;
#X obj 311 149 * 127;
#X obj 361 149 * 127;
#X obj 411 149 * 127;
#X obj 61 227 noteout;
#X msg 61 173 1 \$1;
#X msg 111 173 4 \$1;
#X msg 161 173 7 \$1;
#X obj 211 173 10 \$1;
#X msg 261 173 13 \$1;
#X msg 311 173 16 \$1;
#X msg 361 173 19 \$1;
#X msg 411 173 22 \$1;
#X obj 59 55 inlet;
#X obj 61 104 unpack f f f f f f f f, f 51;
#X obj 703 147 * 127;
#X obj 753 147 * 127;
#X obj 803 147 * 127;
#X obj 853 147 * 127;
#X obj 903 147 * 127;
#X obj 953 147 * 127;
#X obj 1003 147 * 127;
#X obj 1053 147 * 127;
#X obj 703 225 noteout;
#X msg 703 171 2 \$1;
#X msg 753 171 5 \$1;
#X msg 803 171 8 \$1;
#X obj 853 171 11 \$1;
#X msg 903 171 14 \$1;
#X msg 953 171 17 \$1;
#X msg 1003 171 20 \$1;
#X msg 1053 171 23 \$1;
#X obj 704 104 unpack f f f f f f f f, f 51;
#X obj 706 55 inlet;
#X text 460 163 <--- Midi Mix Lights Row A;
#X text 1102 161 <--- Midi Mix Lights Row B;
#X connect 0 0 9 0;
#X connect 1 0 10 0;
#X connect 2 0 11 0;
#X connect 3 0 12 0;
#X connect 4 0 13 0;
#X connect 5 0 14 0;
#X connect 6 0 15 0;
#X connect 7 0 16 0;
#X connect 9 0 8 0;
#X connect 10 0 8 0;
#X connect 11 0 8 0;
#X connect 12 0 8 0;
#X connect 13 0 8 0;
#X connect 14 0 8 0;
#X connect 15 0 8 0;
#X connect 16 0 8 0;
#X connect 17 0 18 0;
#X connect 18 0 0 0;
#X connect 18 1 1 0;
#X connect 18 2 2 0;
#X connect 18 3 3 0;
#X connect 18 4 4 0;
#X connect 18 5 5 0;
#X connect 18 6 6 0;
#X connect 18 7 7 0;
#X connect 19 0 28 0;
#X connect 20 0 29 0;
#X connect 21 0 30 0;
#X connect 22 0 31 0;
#X connect 23 0 32 0;
#X connect 24 0 33 0;
#X connect 25 0 34 0;
#X connect 26 0 35 0;
#X connect 28 0 27 0;
#X connect 29 0 27 0;
#X connect 30 0 27 0;
#X connect 31 0 27 0;
#X connect 32 0 27 0;
#X connect 33 0 27 0;
#X connect 34 0 27 0;
#X connect 35 0 27 0;
#X connect 36 0 19 0;
#X connect 36 1 20 0;
#X connect 36 2 21 0;
#X connect 36 3 22 0;
#X connect 36 4 23 0;
#X connect 36 5 24 0;
#X connect 36 6 25 0;
#X connect 36 7 26 0;
#X connect 37 0 36 0;
#X restore 435 281 pd Midi_Mix_Lights;
#N canvas 421 135 807 338 row_A_buttons 0;
#X obj 54 47 inlet;
#X obj 54 91 sel 127;
#X obj 124 47 inlet;
#X obj 124 91 sel 127;
#X obj 194 47 inlet;
#X obj 194 91 sel 127;
#X obj 264 47 inlet;
#X obj 264 91 sel 127;
#X obj 334 47 inlet;
#X obj 334 91 sel 127;
#X obj 404 47 inlet;
#X obj 404 91 sel 127;
#X obj 474 47 inlet;
#X obj 474 91 sel 127;
#X obj 544 47 inlet;
#X obj 544 91 sel 127;
#X text 635 90 <----- Toggle Mode;
#X obj 54 185 tgl 19 0 empty empty empty 0 -10 0 12 #fcfcfc #000000 #000000 0 1;
#X obj 124 185 tgl 19 0 empty empty empty 0 -10 0 12 #fcfcfc #000000 #000000 0 1;
#X obj 194 185 tgl 19 0 empty empty empty 0 -10 0 12 #fcfcfc #000000 #000000 0 1;
#X obj 264 185 tgl 19 0 empty empty empty 0 -10 0 12 #fcfcfc #000000 #000000 0 1;
#X obj 334 185 tgl 19 0 empty empty empty 0 -10 0 12 #fcfcfc #000000 #000000 0 1;
#X obj 404 185 tgl 19 0 empty empty empty 0 -10 0 12 #fcfcfc #000000 #000000 0 1;
#X obj 474 185 tgl 19 0 empty empty empty 0 -10 0 12 #fcfcfc #000000 #000000 0 1;
#X obj 544 185 tgl 19 0 empty empty empty 0 -10 0 12 #fcfcfc #000000 #000000 0 1;
#X obj 55 277 outlet;
#N canvas 68 97 565 267 pak 0;
#X obj 18 15 inlet;
#X obj 66 120 t b f;
#X obj 29 169 pack f f f f f f f f, f 70;
#X obj 136 120 t b f;
#X obj 206 120 t b f;
#X obj 275 120 t b f;
#X obj 344 120 t b f;
#X obj 414 120 t b f;
#X obj 484 120 t b f;
#X obj 66 15 inlet;
#X obj 136 15 inlet;
#X obj 207 15 inlet;
#X obj 276 15 inlet;
#X obj 345 15 inlet;
#X obj 414 15 inlet;
#X obj 487 15 inlet;
#X obj 29 223 outlet;
#X connect 0 0 2 0;
#X connect 1 0 2 0;
#X connect 1 1 2 1;
#X connect 2 0 16 0;
#X connect 3 0 2 0;
#X connect 3 1 2 2;
#X connect 4 0 2 0;
#X connect 4 1 2 3;
#X connect 5 0 2 0;
#X connect 5 1 2 4;
#X connect 6 0 2 0;
#X connect 6 1 2 5;
#X connect 7 0 2 0;
#X connect 7 1 2 6;
#X connect 8 0 2 0;
#X connect 8 1 2 7;
#X connect 9 0 1 0;
#X connect 10 0 3 0;
#X connect 11 0 4 0;
#X connect 12 0 5 0;
#X connect 13 0 6 0;
#X connect 14 0 7 0;
#X connect 15 0 8 0;
#X restore 55 245 pd pak 8;
#X connect 0 0 1 0;
#X connect 1 0 17 0;
#X connect 2 0 3 0;
#X connect 3 0 18 0;
#X connect 4 0 5 0;
#X connect 5 0 19 0;
#X connect 6 0 7 0;
#X connect 7 0 20 0;
#X connect 8 0 9 0;
#X connect 9 0 21 0;
#X connect 10 0 11 0;
#X connect 11 0 22 0;
#X connect 12 0 13 0;
#X connect 13 0 23 0;
#X connect 14 0 15 0;
#X connect 15 0 24 0;
#X connect 17 0 26 0;
#X connect 18 0 26 1;
#X connect 19 0 26 2;
#X connect 20 0 26 3;
#X connect 21 0 26 4;
#X connect 22 0 26 5;
#X connect 23 0 26 6;
#X connect 24 0 26 7;
#X connect 26 0 25 0;
#X restore 58 95 pd row_A_buttons;
#X connect 0 0 32 0;
#X connect 0 1 32 1;
#X connect 0 2 32 2;
#X connect 0 3 32 3;
#X connect 0 4 32 4;
#X connect 0 5 32 5;
#X connect 0 6 32 6;
#X connect 0 7 32 7;
#X connect 1 0 22 0;
#X connect 1 1 22 1;
#X connect 1 2 22 2;
#X connect 1 3 22 3;
#X connect 1 4 22 4;
#X connect 1 5 22 5;
#X connect 1 6 22 6;
#X connect 1 7 22 7;
#X connect 2 0 5 0;
#X connect 3 0 6 0;
#X connect 4 0 7 0;
#X connect 5 0 23 0;
#X connect 5 0 17 0;
#X connect 5 0 31 1;
#X connect 6 0 17 0;
#X connect 6 0 24 0;
#X connect 6 0 31 0;
#X connect 7 0 28 0;
#X connect 7 1 25 0;
#X connect 8 0 0 0;
#X connect 8 0 1 0;
#X connect 17 0 9 0;
#X connect 17 1 10 0;
#X connect 17 2 11 0;
#X connect 17 3 12 0;
#X connect 17 4 13 0;
#X connect 17 5 14 0;
#X connect 17 6 15 0;
#X connect 17 7 16 0;
#X connect 18 0 4 0;
#X connect 19 0 3 0;
#X connect 19 1 3 1;
#X connect 20 0 2 0;
#X connect 20 1 2 1;
#X connect 22 0 20 0;
#X connect 25 0 26 0;
#X connect 25 1 27 0;
#X connect 26 0 2 0;
#X connect 27 0 5 1;
#X connect 28 0 29 0;
#X connect 28 1 30 0;
#X connect 29 0 3 0;
#X connect 30 0 6 1;
#X connect 32 0 19 0;
#X restore 972 441 pd first_raw_buttons;
#X f 40;
#X obj 972 485 tgl 19 0 \$0-to_gui_b1 empty empty 0 -10 0 12 #fcfcfc #000000 #000000 0 1;
#X obj 1012 485 tgl 19 0 \$0-to_gui_b2 empty empty 0 -10 0 12 #fcfcfc #000000 #000000 0 1;
#X obj 1052 485 tgl 19 0 \$0-to_gui_b3 empty empty 0 -10 0 12 #fcfcfc #000000 #000000 0 1;
#X obj 1092 485 tgl 19 0 \$0-to_gui_b4 empty empty 0 -10 0 12 #fcfcfc #000000 #000000 0 1;
#X obj 1132 485 tgl 19 0 \$0-to_gui_b5 empty empty 0 -10 0 12 #fcfcfc #000000 #000000 0 1;
#X obj 1172 485 tgl 19 0 \$0-to_gui_b6 empty empty 0 -10 0 12 #fcfcfc #000000 #000000 0 1;
#X obj 1212 485 tgl 19 0 \$0-to_gui_b7 empty empty 0 -10 0 12 #fcfcfc #000000 #000000 0 1;
#X obj 1252 485 tgl 19 0 \$0-to_gui_b8 empty empty 0 -10 0 12 #fcfcfc #000000 #000000 0 1;
#X obj 972 570 tgl 19 0 \$0-to_gui_b9 empty empty 0 -10 0 12 #fcfcfc #000000 #000000 0 1;
#X obj 1012 570 tgl 19 0 \$0-to_gui_b10 empty empty 0 -10 0 12 #fcfcfc #000000 #000000 0 1;
#X obj 1052 570 tgl 19 0 \$0-to_gui_b11 empty empty 0 -10 0 12 #fcfcfc #000000 #000000 0 1;
#X obj 1092 570 tgl 19 0 \$0-to_gui_b12 empty empty 0 -10 0 12 #fcfcfc #000000 #000000 0 1;
#X obj 1132 570 tgl 19 0 \$0-to_gui_b13 empty empty 0 -10 0 12 #fcfcfc #000000 #000000 0 1;
#X obj 1172 570 tgl 19 0 \$0-to_gui_b14 empty empty 0 -10 0 12 #fcfcfc #000000 #000000 0 1;
#X obj 1212 570 tgl 19 0 \$0-to_gui_b15 empty empty 0 -10 0 12 #fcfcfc #000000 #000000 0 1;
#X obj 1252 570 tgl 19 0 \$0-to_gui_b16 empty empty 0 -10 0 12 #fcfcfc #000000 #000000 0 1;
#X obj 530 558 outlet knobs;
#X obj 630 558 outlet buttons;
#X obj 740 558 outlet sliders;
#X obj 947 74 pack f f;
#N canvas 131 166 587 372 secodn_raw_buttons 0;
#X obj 59 48 inlet;
#X obj 57 85 route 41 42 43 44 45 46 47 48, f 46;
#N canvas 666 133 816 243 second_raw_buttons 0;
#X obj 54 47 inlet;
#X obj 54 91 sel 127;
#X obj 124 47 inlet;
#X obj 124 91 sel 127;
#X obj 194 47 inlet;
#X obj 194 91 sel 127;
#X obj 264 47 inlet;
#X obj 264 91 sel 127;
#X obj 334 47 inlet;
#X obj 334 91 sel 127;
#X obj 404 47 inlet;
#X obj 404 91 sel 127;
#X obj 474 47 inlet;
#X obj 474 91 sel 127;
#X obj 544 47 inlet;
#X obj 544 91 sel 127;
#X text 635 90 <----- Toggle Mode;
#X obj 54 115 tgl 19 0 empty empty empty 0 -10 0 12 #fcfcfc #000000 #000000 0 1;
#X obj 124 115 tgl 19 0 empty empty empty 0 -10 0 12 #fcfcfc #000000 #000000 0 1;
#X obj 194 115 tgl 19 0 empty empty empty 0 -10 0 12 #fcfcfc #000000 #000000 0 1;
#X obj 264 115 tgl 19 0 empty empty empty 0 -10 0 12 #fcfcfc #000000 #000000 0 1;
#X obj 334 115 tgl 19 0 empty empty empty 0 -10 0 12 #fcfcfc #000000 #000000 0 1;
#X obj 404 115 tgl 19 0 empty empty empty 0 -10 0 12 #fcfcfc #000000 #000000 0 1;
#X obj 474 115 tgl 19 0 empty empty empty 0 -10 0 12 #fcfcfc #000000 #000000 0 1;
#X obj 544 115 tgl 19 0 empty empty empty 0 -10 0 12 #fcfcfc #000000 #000000 0 1;
#X obj 54 198 outlet;
#N canvas 68 97 565 267 pak 0;
#X obj 18 15 inlet;
#X obj 66 120 t b f;
#X obj 29 169 pack f f f f f f f f, f 70;
#X obj 136 120 t b f;
#X obj 206 120 t b f;
#X obj 275 120 t b f;
#X obj 344 120 t b f;
#X obj 414 120 t b f;
#X obj 484 120 t b f;
#X obj 66 15 inlet;
#X obj 136 15 inlet;
#X obj 207 15 inlet;
#X obj 276 15 inlet;
#X obj 345 15 inlet;
#X obj 414 15 inlet;
#X obj 487 15 inlet;
#X obj 29 223 outlet;
#X connect 0 0 2 0;
#X connect 1 0 2 0;
#X connect 1 1 2 1;
#X connect 2 0 16 0;
#X connect 3 0 2 0;
#X connect 3 1 2 2;
#X connect 4 0 2 0;
#X connect 4 1 2 3;
#X connect 5 0 2 0;
#X connect 5 1 2 4;
#X connect 6 0 2 0;
#X connect 6 1 2 5;
#X connect 7 0 2 0;
#X connect 7 1 2 6;
#X connect 8 0 2 0;
#X connect 8 1 2 7;
#X connect 9 0 1 0;
#X connect 10 0 3 0;
#X connect 11 0 4 0;
#X connect 12 0 5 0;
#X connect 13 0 6 0;
#X connect 14 0 7 0;
#X connect 15 0 8 0;
#X restore 54 170 pd pak 8;
#X connect 0 0 1 0;
#X connect 1 0 17 0;
#X connect 2 0 3 0;
#X connect 3 0 18 0;
#X connect 4 0 5 0;
#X connect 5 0 19 0;
#X connect 6 0 7 0;
#X connect 7 0 20 0;
#X connect 8 0 9 0;
#X connect 9 0 21 0;
#X connect 10 0 11 0;
#X connect 11 0 22 0;
#X connect 12 0 13 0;
#X connect 13 0 23 0;
#X connect 14 0 15 0;
#X connect 15 0 24 0;
#X connect 17 0 26 0;
#X connect 18 0 26 1;
#X connect 19 0 26 2;
#X connect 20 0 26 3;
#X connect 21 0 26 4;
#X connect 22 0 26 5;
#X connect 23 0 26 6;
#X connect 24 0 26 7;
#X connect 26 0 25 0;
#X restore 58 135 pd second_raw_buttons;
#X f 40;
#X obj 58 209 unpack f f f f f f f f, f 51;
#X obj 58 253 outlet;
#X obj 108 253 outlet;
#X obj 158 253 outlet;
#X obj 208 253 outlet;
#X obj 258 253 outlet;
#X obj 308 253 outlet;
#X obj 358 253 outlet;
#X obj 408 253 outlet;
#N canvas 173 212 619 298 Midi_Mix_Lights 0;
#X obj 37 37 inlet;
#X obj 34 139 * 127;
#X obj 84 139 * 127;
#X obj 134 139 * 127;
#X obj 184 139 * 127;
#X obj 234 139 * 127;
#X obj 284 139 * 127;
#X obj 334 139 * 127;
#X obj 384 139 * 127;
#X obj 34 217 noteout;
#X text 433 153 <--- Midi Mix lights;
#X msg 34 163 3 \$1;
#X msg 84 163 6 \$1;
#X msg 134 163 9 \$1;
#X obj 184 163 12 \$1;
#X msg 234 163 15 \$1;
#X msg 284 163 18 \$1;
#X msg 334 163 21 \$1;
#X msg 384 163 24 \$1;
#X obj 38 98 unpack f f f f f f f f, f 51;
#X connect 0 0 19 0;
#X connect 1 0 11 0;
#X connect 2 0 12 0;
#X connect 3 0 13 0;
#X connect 4 0 14 0;
#X connect 5 0 15 0;
#X connect 6 0 16 0;
#X connect 7 0 17 0;
#X connect 8 0 18 0;
#X connect 11 0 9 0;
#X connect 12 0 9 0;
#X connect 13 0 9 0;
#X connect 14 0 9 0;
#X connect 15 0 9 0;
#X connect 16 0 9 0;
#X connect 17 0 9 0;
#X connect 18 0 9 0;
#X connect 19 0 1 0;
#X connect 19 1 2 0;
#X connect 19 2 3 0;
#X connect 19 3 4 0;
#X connect 19 4 5 0;
#X connect 19 5 6 0;
#X connect 19 6 7 0;
#X connect 19 7 8 0;
#X restore 383 169 pd Midi_Mix_Lights;
#X connect 0 0 1 0;
#X connect 1 0 2 0;
#X connect 1 1 2 1;
#X connect 1 2 2 2;
#X connect 1 3 2 3;
#X connect 1 4 2 4;
#X connect 1 5 2 5;
#X connect 1 6 2 6;
#X connect 1 7 2 7;
#X connect 2 0 3 0;
#X connect 2 0 12 0;
#X connect 3 0 4 0;
#X connect 3 1 5 0;
#X connect 3 2 6 0;
#X connect 3 3 7 0;
#X connect 3 4 8 0;
#X connect 3 5 9 0;
#X connect 3 6 10 0;
#X connect 3 7 11 0;
#X restore 971 531 pd secodn_raw_buttons;
#X f 40;
#X obj 1431 469 tgl 19 0 empty empty empty 0 -10 0 12 #fcfcfc #000000 #000000 0 1;
#X obj 443 149 tgl 19 0 empty \$0-to_gui_bswtich empty 0 -10 0 12 #fcfcfc #000000 #000000 0 1;
#N canvas 286 315 729 466 side_buttons 0;
#X obj 36 44 inlet;
#X obj 41 87 route 25 26 27;
#X obj 277 138 sel 127;
#X text 348 138 <---- Toggle Mode;
#X obj 277 162 tgl 19 0 empty empty empty 0 -10 0 12 #fcfcfc #000000 #000000 0 1;
#X obj 379 274 noteout;
#X msg 479 236 27 \$1;
#X obj 478 202 * 127;
#X obj 283 393 outlet;
#X obj 328 40 loadbang;
#X msg 328 64 0;
#X obj 42 138 sel 127;
#X obj 42 162 tgl 19 0 empty empty empty 0 -10 0 12 #fcfcfc #000000 #000000 0 1;
#X obj 102 138 sel 127;
#X obj 102 162 tgl 19 0 empty empty empty 0 -10 0 12 #fcfcfc #000000 #000000 0 1;
#X obj 428 202 * 127;
#X obj 378 202 * 127;
#X msg 379 236 25 \$1;
#X msg 429 236 26 \$1;
#X text 539 213 <--- Midi Mix Lights;
#X obj 102 386 outlet;
#X obj 42 386 outlet;
#X connect 0 0 1 0;
#X connect 1 0 11 0;
#X connect 1 1 13 0;
#X connect 1 2 2 0;
#X connect 2 0 4 0;
#X connect 4 0 7 0;
#X connect 4 0 8 0;
#X connect 6 0 5 0;
#X connect 7 0 6 0;
#X connect 9 0 10 0;
#X connect 10 0 4 0;
#X connect 11 0 12 0;
#X connect 12 0 16 0;
#X connect 12 0 21 0;
#X connect 13 0 14 0;
#X connect 14 0 15 0;
#X connect 14 0 20 0;
#X connect 15 0 18 0;
#X connect 16 0 17 0;
#X connect 17 0 5 0;
#X connect 18 0 5 0;
#X restore 1329 445 pd side_buttons;
#X text 1458 468 <--- switch;
#X obj 1329 469 tgl 19 0 \$0-to_gui_b25 empty empty 0 -10 0 12 #fcfcfc #000000 #000000 0 1;
#X obj 1380 469 tgl 19 0 \$0-to_gui_b26 empty empty 0 -10 0 12 #fcfcfc #000000 #000000 0 1;
#X obj 443 111 tgl 19 0 empty \$0-to_gui_b26 empty 0 -10 0 12 #fcfcfc #000000 #000000 0 1;
#X obj 443 81 tgl 19 0 empty \$0-to_gui_b25 empty 0 -10 0 12 #fcfcfc #000000 #000000 0 1;
#N canvas 127 238 544 300 knobs_1-8 0;
#X obj 50 42 inlet;
#X obj 100 42 inlet;
#X obj 150 42 inlet;
#X obj 201 42 inlet;
#X obj 250 42 inlet;
#X obj 300 42 inlet;
#X obj 350 42 inlet;
#X obj 401 42 inlet;
#X obj 50 66 list prepend k1;
#X obj 100 96 list prepend k2;
#X obj 150 126 list prepend k3;
#X obj 201 156 list prepend k4;
#X obj 250 66 list prepend k5;
#X obj 300 96 list prepend k6;
#X obj 350 126 list prepend k7;
#X obj 401 156 list prepend k8;
#X obj 50 233 outlet;
#X connect 0 0 8 0;
#X connect 1 0 9 0;
#X connect 2 0 10 0;
#X connect 3 0 11 0;
#X connect 4 0 12 0;
#X connect 5 0 13 0;
#X connect 6 0 14 0;
#X connect 7 0 15 0;
#X connect 8 0 16 0;
#X connect 9 0 16 0;
#X connect 10 0 16 0;
#X connect 11 0 16 0;
#X connect 12 0 16 0;
#X connect 13 0 16 0;
#X connect 14 0 16 0;
#X connect 15 0 16 0;
#X restore 512 70 pd knobs_1-8;
#N canvas 127 238 565 300 knobs_9-16 0;
#X obj 48 36 inlet;
#X obj 98 36 inlet;
#X obj 148 36 inlet;
#X obj 199 36 inlet;
#X obj 248 36 inlet;
#X obj 298 36 inlet;
#X obj 348 36 inlet;
#X obj 399 36 inlet;
#X obj 48 60 list prepend k9;
#X obj 98 90 list prepend k10;
#X obj 148 120 list prepend k11;
#X obj 199 150 list prepend k12;
#X obj 248 60 list prepend k13;
#X obj 298 90 list prepend k14;
#X obj 348 120 list prepend k15;
#X obj 399 150 list prepend k16;
#X obj 50 233 outlet;
#X connect 0 0 8 0;
#X connect 1 0 9 0;
#X connect 2 0 10 0;
#X connect 3 0 11 0;
#X connect 4 0 12 0;
#X connect 5 0 13 0;
#X connect 6 0 14 0;
#X connect 7 0 15 0;
#X connect 8 0 16 0;
#X connect 9 0 16 0;
#X connect 10 0 16 0;
#X connect 11 0 16 0;
#X connect 12 0 16 0;
#X connect 13 0 16 0;
#X connect 14 0 16 0;
#X connect 15 0 16 0;
#X restore 533 98 pd knobs_9-16;
#N canvas 127 238 536 300 knobs_17-24 0;
#X obj 53 39 inlet;
#X obj 103 39 inlet;
#X obj 153 39 inlet;
#X obj 204 39 inlet;
#X obj 253 39 inlet;
#X obj 303 39 inlet;
#X obj 353 39 inlet;
#X obj 404 39 inlet;
#X obj 53 63 list prepend k17;
#X obj 103 93 list prepend k18;
#X obj 153 123 list prepend k19;
#X obj 204 153 list prepend k20;
#X obj 253 63 list prepend k21;
#X obj 303 93 list prepend k22;
#X obj 353 123 list prepend k23;
#X obj 404 153 list prepend k24;
#X obj 50 233 outlet;
#X connect 0 0 8 0;
#X connect 1 0 9 0;
#X connect 2 0 10 0;
#X connect 3 0 11 0;
#X connect 4 0 12 0;
#X connect 5 0 13 0;
#X connect 6 0 14 0;
#X connect 7 0 15 0;
#X connect 8 0 16 0;
#X connect 9 0 16 0;
#X connect 10 0 16 0;
#X connect 11 0 16 0;
#X connect 12 0 16 0;
#X connect 13 0 16 0;
#X connect 14 0 16 0;
#X connect 15 0 16 0;
#X restore 565 131 pd knobs_17-24;
#N canvas 218 390 1254 391 buttons_1-8/9-16 0;
#X obj 50 42 inlet;
#X obj 100 42 inlet;
#X obj 150 42 inlet;
#X obj 201 42 inlet;
#X obj 250 42 inlet;
#X obj 300 42 inlet;
#X obj 350 42 inlet;
#X obj 401 42 inlet;
#X obj 38 313 outlet;
#X obj 1073 40 inlet;
#X text 1056 17 switch row;
#X obj 44 125 list prepend b1;
#N canvas 738 531 338 259 b 0;
#X obj 85 114 spigot;
#X obj 155 114 spigot;
#X obj 177 56 expr $i1 == 0 \; $i1 == 1;
#X obj 179 30 r \$0-row_switch;
#X obj 155 146 i;
#X obj 86 143 i;
#X obj 69 37 inlet;
#X obj 86 167 outlet;
#X obj 155 170 outlet;
#X connect 0 0 5 1;
#X connect 0 0 5 0;
#X connect 1 0 4 0;
#X connect 1 0 4 1;
#X connect 2 0 0 1;
#X connect 2 1 1 1;
#X connect 3 0 2 0;
#X connect 4 0 8 0;
#X connect 5 0 7 0;
#X connect 6 0 0 0;
#X connect 6 0 1 0;
#X restore 399 78 pd b;
#X obj 64 155 list prepend b2;
#X obj 84 185 list prepend b3;
#X obj 114 215 list prepend b4;
#X obj 204 125 list prepend b5;
#X obj 224 155 list prepend b6;
#X obj 244 185 list prepend b7;
#X obj 274 215 list prepend b8;
#X obj 401 122 list prepend b9;
#X obj 421 152 list prepend b10;
#X obj 441 182 list prepend b11;
#X obj 471 212 list prepend b12;
#X obj 561 122 list prepend b13;
#X obj 581 152 list prepend b14;
#X obj 601 182 list prepend b15;
#X obj 631 212 list prepend b16;
#X obj 1072 89 s \$0-row_switch;
#X obj 1072 65 tgl 19 0 empty empty empty 0 -10 0 12 #fcfcfc #000000 #000000 0 1;
#N canvas 738 531 338 259 b 0;
#X obj 85 114 spigot;
#X obj 155 114 spigot;
#X obj 177 56 expr $i1 == 0 \; $i1 == 1;
#X obj 179 30 r \$0-row_switch;
#X obj 155 146 i;
#X obj 86 143 i;
#X obj 69 37 inlet;
#X obj 86 167 outlet;
#X obj 155 170 outlet;
#X connect 0 0 5 1;
#X connect 0 0 5 0;
#X connect 1 0 4 0;
#X connect 1 0 4 1;
#X connect 2 0 0 1;
#X connect 2 1 1 1;
#X connect 3 0 2 0;
#X connect 4 0 8 0;
#X connect 5 0 7 0;
#X connect 6 0 0 0;
#X connect 6 0 1 0;
#X restore 48 78 pd b;
#N canvas 738 531 338 259 b 0;
#X obj 85 114 spigot;
#X obj 155 114 spigot;
#X obj 177 56 expr $i1 == 0 \; $i1 == 1;
#X obj 179 30 r \$0-row_switch;
#X obj 155 146 i;
#X obj 86 143 i;
#X obj 69 37 inlet;
#X obj 86 167 outlet;
#X obj 155 170 outlet;
#X connect 0 0 5 1;
#X connect 0 0 5 0;
#X connect 1 0 4 0;
#X connect 1 0 4 1;
#X connect 2 0 0 1;
#X connect 2 1 1 1;
#X connect 3 0 2 0;
#X connect 4 0 8 0;
#X connect 5 0 7 0;
#X connect 6 0 0 0;
#X connect 6 0 1 0;
#X restore 98 78 pd b;
#N canvas 738 531 338 259 b 0;
#X obj 85 114 spigot;
#X obj 155 114 spigot;
#X obj 177 56 expr $i1 == 0 \; $i1 == 1;
#X obj 179 30 r \$0-row_switch;
#X obj 155 146 i;
#X obj 86 143 i;
#X obj 69 37 inlet;
#X obj 86 167 outlet;
#X obj 155 170 outlet;
#X connect 0 0 5 1;
#X connect 0 0 5 0;
#X connect 1 0 4 0;
#X connect 1 0 4 1;
#X connect 2 0 0 1;
#X connect 2 1 1 1;
#X connect 3 0 2 0;
#X connect 4 0 8 0;
#X connect 5 0 7 0;
#X connect 6 0 0 0;
#X connect 6 0 1 0;
#X restore 149 78 pd b;
#N canvas 738 531 338 259 b 0;
#X obj 85 114 spigot;
#X obj 155 114 spigot;
#X obj 177 56 expr $i1 == 0 \; $i1 == 1;
#X obj 179 30 r \$0-row_switch;
#X obj 155 146 i;
#X obj 86 143 i;
#X obj 69 37 inlet;
#X obj 86 167 outlet;
#X obj 155 170 outlet;
#X connect 0 0 5 1;
#X connect 0 0 5 0;
#X connect 1 0 4 0;
#X connect 1 0 4 1;
#X connect 2 0 0 1;
#X connect 2 1 1 1;
#X connect 3 0 2 0;
#X connect 4 0 8 0;
#X connect 5 0 7 0;
#X connect 6 0 0 0;
#X connect 6 0 1 0;
#X restore 199 78 pd b;
#N canvas 738 531 338 259 b 0;
#X obj 85 114 spigot;
#X obj 155 114 spigot;
#X obj 177 56 expr $i1 == 0 \; $i1 == 1;
#X obj 179 30 r \$0-row_switch;
#X obj 155 146 i;
#X obj 86 143 i;
#X obj 69 37 inlet;
#X obj 86 167 outlet;
#X obj 155 170 outlet;
#X connect 0 0 5 1;
#X connect 0 0 5 0;
#X connect 1 0 4 0;
#X connect 1 0 4 1;
#X connect 2 0 0 1;
#X connect 2 1 1 1;
#X connect 3 0 2 0;
#X connect 4 0 8 0;
#X connect 5 0 7 0;
#X connect 6 0 0 0;
#X connect 6 0 1 0;
#X restore 249 78 pd b;
#N canvas 738 531 338 259 b 0;
#X obj 85 114 spigot;
#X obj 155 114 spigot;
#X obj 177 56 expr $i1 == 0 \; $i1 == 1;
#X obj 179 30 r \$0-row_switch;
#X obj 155 146 i;
#X obj 86 143 i;
#X obj 69 37 inlet;
#X obj 86 167 outlet;
#X obj 155 170 outlet;
#X connect 0 0 5 1;
#X connect 0 0 5 0;
#X connect 1 0 4 0;
#X connect 1 0 4 1;
#X connect 2 0 0 1;
#X connect 2 1 1 1;
#X connect 3 0 2 0;
#X connect 4 0 8 0;
#X connect 5 0 7 0;
#X connect 6 0 0 0;
#X connect 6 0 1 0;
#X restore 299 78 pd b;
#N canvas 738 531 338 259 b 0;
#X obj 85 114 spigot;
#X obj 155 114 spigot;
#X obj 177 56 expr $i1 == 0 \; $i1 == 1;
#X obj 179 30 r \$0-row_switch;
#X obj 155 146 i;
#X obj 86 143 i;
#X obj 69 37 inlet;
#X obj 86 167 outlet;
#X obj 155 170 outlet;
#X connect 0 0 5 1;
#X connect 0 0 5 0;
#X connect 1 0 4 0;
#X connect 1 0 4 1;
#X connect 2 0 0 1;
#X connect 2 1 1 1;
#X connect 3 0 2 0;
#X connect 4 0 8 0;
#X connect 5 0 7 0;
#X connect 6 0 0 0;
#X connect 6 0 1 0;
#X restore 349 78 pd b;
#X connect 0 0 30 0;
#X connect 1 0 31 0;
#X connect 2 0 32 0;
#X connect 3 0 33 0;
#X connect 4 0 34 0;
#X connect 5 0 35 0;
#X connect 6 0 36 0;
#X connect 7 0 12 0;
#X connect 9 0 29 0;
#X connect 11 0 8 0;
#X connect 12 0 19 0;
#X connect 12 1 27 0;
#X connect 13 0 8 0;
#X connect 14 0 8 0;
#X connect 15 0 8 0;
#X connect 16 0 8 0;
#X connect 17 0 8 0;
#X connect 18 0 8 0;
#X connect 19 0 8 0;
#X connect 20 0 8 0;
#X connect 21 0 8 0;
#X connect 22 0 8 0;
#X connect 23 0 8 0;
#X connect 24 0 8 0;
#X connect 25 0 8 0;
#X connect 26 0 8 0;
#X connect 27 0 8 0;
#X connect 29 0 28 0;
#X connect 30 0 11 0;
#X connect 30 1 20 0;
#X connect 31 0 13 0;
#X connect 31 1 21 0;
#X connect 32 0 14 0;
#X connect 32 1 22 0;
#X connect 33 0 15 0;
#X connect 33 1 23 0;
#X connect 34 0 16 0;
#X connect 34 1 24 0;
#X connect 35 0 17 0;
#X connect 35 1 25 0;
#X connect 36 0 18 0;
#X connect 36 1 26 0;
#X restore 599 173 pd buttons_1-8/9-16;
#N canvas 122 333 560 343 buttons_17-24 0;
#X obj 45 37 inlet;
#X obj 95 37 inlet;
#X obj 145 37 inlet;
#X obj 196 37 inlet;
#X obj 245 37 inlet;
#X obj 295 37 inlet;
#X obj 345 37 inlet;
#X obj 396 37 inlet;
#X obj 49 273 outlet;
#X obj 45 81 list prepend b9;
#X obj 95 111 list prepend b10;
#X obj 145 141 list prepend b11;
#X obj 196 171 list prepend b12;
#X obj 245 81 list prepend b13;
#X obj 295 111 list prepend b14;
#X obj 345 141 list prepend b15;
#X obj 396 171 list prepend b16;
#X connect 0 0 9 0;
#X connect 1 0 10 0;
#X connect 2 0 11 0;
#X connect 3 0 12 0;
#X connect 4 0 13 0;
#X connect 5 0 14 0;
#X connect 6 0 15 0;
#X connect 7 0 16 0;
#X connect 9 0 8 0;
#X connect 10 0 8 0;
#X connect 11 0 8 0;
#X connect 12 0 8 0;
#X connect 13 0 8 0;
#X connect 14 0 8 0;
#X connect 15 0 8 0;
#X connect 16 0 8 0;
#X restore 623 202 pd buttons_17-24;
#N canvas 122 333 256 312 buttons_25-26 0;
#X obj 45 37 inlet;
#X obj 95 37 inlet;
#X obj 49 273 outlet;
#X obj 45 81 list prepend b25;
#X obj 95 121 list prepend b26;
#X connect 0 0 3 0;
#X connect 1 0 4 0;
#X connect 3 0 2 0;
#X connect 4 0 2 0;
#X restore 646 231 pd buttons_25-26;
#N canvas 127 238 1459 300 sliders_1-9 0;
#X obj 50 42 inlet;
#X obj 100 42 inlet;
#X obj 150 42 inlet;
#X obj 201 42 inlet;
#X obj 250 42 inlet;
#X obj 300 42 inlet;
#X obj 350 42 inlet;
#X obj 401 42 inlet;
#X obj 450 42 inlet;
#X obj 50 233 outlet;
#X obj 50 66 list prepend s1;
#X obj 100 96 list prepend s2;
#X obj 150 126 list prepend s3;
#X obj 201 156 list prepend s4;
#X obj 250 66 list prepend s5;
#X obj 300 96 list prepend s6;
#X obj 350 126 list prepend s7;
#X obj 401 156 list prepend s8;
#X obj 450 66 list prepend s9;
#X connect 0 0 10 0;
#X connect 1 0 11 0;
#X connect 2 0 12 0;
#X connect 3 0 13 0;
#X connect 4 0 14 0;
#X connect 5 0 15 0;
#X connect 6 0 16 0;
#X connect 7 0 17 0;
#X connect 8 0 18 0;
#X connect 10 0 9 0;
#X connect 11 0 9 0;
#X connect 12 0 9 0;
#X connect 13 0 9 0;
#X connect 14 0 9 0;
#X connect 15 0 9 0;
#X connect 16 0 9 0;
#X connect 17 0 9 0;
#X connect 18 0 9 0;
#X restore 740 397 pd sliders_1-9;
#X obj 1463 523 s \$0-to_gui_bswtich;
#X obj 1431 493 t f f;
#X connect 0 0 1 0;
#X connect 0 1 1 1;
#X connect 1 0 112 0;
#X connect 2 0 5 0;
#X connect 2 1 6 0;
#X connect 2 2 7 0;
#X connect 2 3 8 0;
#X connect 2 4 9 0;
#X connect 2 5 10 0;
#X connect 2 6 11 0;
#X connect 2 7 12 0;
#X connect 3 0 13 0;
#X connect 3 1 14 0;
#X connect 3 2 15 0;
#X connect 3 3 16 0;
#X connect 3 4 17 0;
#X connect 3 5 18 0;
#X connect 3 6 19 0;
#X connect 3 7 20 0;
#X connect 4 0 21 0;
#X connect 4 1 22 0;
#X connect 4 2 23 0;
#X connect 4 3 24 0;
#X connect 4 4 25 0;
#X connect 4 5 26 0;
#X connect 4 6 27 0;
#X connect 4 7 28 0;
#X connect 29 0 122 0;
#X connect 30 0 122 1;
#X connect 31 0 122 2;
#X connect 32 0 122 3;
#X connect 33 0 122 4;
#X connect 34 0 122 5;
#X connect 35 0 122 6;
#X connect 36 0 122 7;
#X connect 37 0 123 0;
#X connect 38 0 123 1;
#X connect 39 0 123 2;
#X connect 40 0 123 3;
#X connect 41 0 123 4;
#X connect 42 0 123 5;
#X connect 43 0 123 6;
#X connect 44 0 123 7;
#X connect 45 0 124 0;
#X connect 46 0 124 1;
#X connect 47 0 124 2;
#X connect 48 0 124 3;
#X connect 49 0 124 4;
#X connect 50 0 124 5;
#X connect 51 0 124 6;
#X connect 52 0 124 7;
#X connect 53 0 128 0;
#X connect 54 0 128 1;
#X connect 55 0 128 2;
#X connect 56 0 128 3;
#X connect 57 0 128 4;
#X connect 58 0 128 5;
#X connect 59 0 128 6;
#X connect 60 0 128 7;
#X connect 61 0 128 8;
#X connect 64 0 65 0;
#X connect 64 1 66 0;
#X connect 64 2 67 0;
#X connect 64 3 68 0;
#X connect 64 4 69 0;
#X connect 64 5 70 0;
#X connect 64 6 71 0;
#X connect 64 7 72 0;
#X connect 64 8 73 0;
#X connect 75 0 125 0;
#X connect 76 0 125 1;
#X connect 77 0 125 2;
#X connect 78 0 125 3;
#X connect 79 0 125 4;
#X connect 80 0 125 5;
#X connect 81 0 125 6;
#X connect 82 0 125 7;
#X connect 83 0 126 0;
#X connect 84 0 126 1;
#X connect 85 0 126 2;
#X connect 86 0 126 3;
#X connect 87 0 126 4;
#X connect 88 0 126 5;
#X connect 89 0 126 6;
#X connect 90 0 126 7;
#X connect 92 0 93 0;
#X connect 92 1 94 0;
#X connect 92 2 95 0;
#X connect 92 3 96 0;
#X connect 92 4 97 0;
#X connect 92 5 98 0;
#X connect 92 6 99 0;
#X connect 92 7 100 0;
#X connect 112 0 2 0;
#X connect 112 0 3 0;
#X connect 112 0 4 0;
#X connect 112 0 64 0;
#X connect 112 0 92 0;
#X connect 112 0 113 0;
#X connect 113 0 101 0;
#X connect 113 1 102 0;
#X connect 113 2 103 0;
#X connect 113 3 104 0;
#X connect 113 4 105 0;
#X connect 113 5 106 0;
#X connect 113 6 107 0;
#X connect 113 7 108 0;
#X connect 114 0 130 0;
#X connect 115 0 125 8;
#X connect 116 0 118 0;
#X connect 116 1 119 0;
#X connect 116 2 114 0;
#X connect 120 0 127 1;
#X connect 121 0 127 0;
#X connect 122 0 109 0;
#X connect 123 0 109 0;
#X connect 124 0 109 0;
#X connect 125 0 110 0;
#X connect 126 0 110 0;
#X connect 127 0 110 0;
#X connect 128 0 111 0;
#X connect 130 0 92 1;
#X connect 130 1 129 0;
#X coords 0 -1 1 1 490 400 1 10 10;
