#N canvas 2 31 953 1011 12;
#X obj 320 11 inlet;
#X obj 50 317 vline~;
#X obj 50 255 pack f f f;
#X msg 18 212 0;
#X floatatom 179 212 8 0 0 0 - mspb -;
#X obj 18 185 t b b;
#X obj 18 156 bng 20 250 50 0 empty empty empty 0 -10 0 12 -262144
-1 -1;
#X msg 50 287 \$1 \, \$2 \$3;
#X obj 280 317 vline~;
#X obj 280 255 pack f f f;
#X msg 248 212 0;
#X floatatom 409 212 8 0 0 0 - mspb -;
#X obj 248 185 t b b;
#X obj 248 156 bng 20 250 50 0 empty empty empty 0 -10 0 12 -262144
-1 -1;
#X msg 280 287 \$1 \, \$2 \$3;
#X obj 320 86 random 4;
#X obj 320 111 sel 0 1 2 3;
#X obj 509 317 vline~;
#X obj 509 255 pack f f f;
#X msg 477 212 0;
#X floatatom 638 212 8 0 0 0 - mspb -;
#X obj 477 185 t b b;
#X obj 477 156 bng 20 250 50 0 empty empty empty 0 -10 0 12 -262144
-1 -1;
#X msg 509 287 \$1 \, \$2 \$3;
#X obj 740 317 vline~;
#X obj 740 255 pack f f f;
#X msg 708 212 0;
#X floatatom 869 212 8 0 0 0 - mspb -;
#X obj 708 185 t b b;
#X obj 708 156 bng 20 250 50 0 empty empty empty 0 -10 0 12 -262144
-1 -1;
#X msg 740 287 \$1 \, \$2 \$3;
#X obj 53 212 array size snare1;
#X obj 50 344 tabread4~ snare1;
#X obj 283 212 array size snare2;
#X obj 280 344 tabread4~ snare2;
#X obj 512 212 array size snare3;
#X obj 509 344 tabread4~ snare3;
#X obj 743 212 array size snare4;
#X obj 740 344 tabread4~ snare4;
#X obj 179 238 * 1;
#X obj 409 238 * 1;
#X obj 638 238 * 1;
#X obj 869 238 * 1;
#X obj 50 399 throw~ amen_sig;
#X obj 280 399 throw~ amen_sig;
#X obj 509 399 throw~ amen_sig;
#X obj 740 399 throw~ amen_sig;
#X obj 161 92 synth_snare;
#X obj 452 57 s stop_others;
#X obj 320 38 t b b;
#X obj 407 434 r stop_others;
#X msg 407 459 stop;
#X obj 50 372 hip~ 5;
#X obj 280 372 hip~ 5;
#X obj 509 369 hip~ 5;
#X obj 740 369 hip~ 5;
#X connect 0 0 49 0;
#X connect 1 0 32 0;
#X connect 2 0 7 0;
#X connect 3 0 2 0;
#X connect 4 0 39 0;
#X connect 5 0 3 0;
#X connect 5 1 31 0;
#X connect 6 0 5 0;
#X connect 7 0 1 0;
#X connect 8 0 34 0;
#X connect 9 0 14 0;
#X connect 10 0 9 0;
#X connect 11 0 40 0;
#X connect 12 0 10 0;
#X connect 12 1 33 0;
#X connect 13 0 12 0;
#X connect 14 0 8 0;
#X connect 15 0 16 0;
#X connect 16 0 5 0;
#X connect 16 1 12 0;
#X connect 16 2 21 0;
#X connect 16 3 28 0;
#X connect 17 0 36 0;
#X connect 18 0 23 0;
#X connect 19 0 18 0;
#X connect 20 0 41 0;
#X connect 21 0 19 0;
#X connect 21 1 35 0;
#X connect 22 0 21 0;
#X connect 23 0 17 0;
#X connect 24 0 38 0;
#X connect 25 0 30 0;
#X connect 26 0 25 0;
#X connect 27 0 42 0;
#X connect 28 0 26 0;
#X connect 28 1 37 0;
#X connect 29 0 28 0;
#X connect 30 0 24 0;
#X connect 31 0 2 1;
#X connect 32 0 52 0;
#X connect 33 0 9 1;
#X connect 34 0 53 0;
#X connect 35 0 18 1;
#X connect 36 0 54 0;
#X connect 37 0 25 1;
#X connect 38 0 55 0;
#X connect 39 0 2 2;
#X connect 40 0 9 2;
#X connect 41 0 18 2;
#X connect 42 0 25 2;
#X connect 49 0 15 0;
#X connect 49 0 47 0;
#X connect 49 1 48 0;
#X connect 50 0 51 0;
#X connect 51 0 1 0;
#X connect 51 0 8 0;
#X connect 51 0 17 0;
#X connect 51 0 24 0;
#X connect 52 0 43 0;
#X connect 53 0 44 0;
#X connect 54 0 45 0;
#X connect 55 0 46 0;
