#N canvas 2 31 953 1011 12;
#X obj 88 297 vline~;
#X obj 88 235 pack f f f;
#X msg 56 192 0;
#X floatatom 219 192 8 0 0 0 - mspb - 0;
#X obj 56 165 t b b;
#X obj 56 136 bng 20 250 50 0 empty empty empty 0 -10 0 12 #fcfcfc #000000 #000000;
#X msg 88 267 \$1 \, \$2 \$3;
#X obj 193 29 inlet;
#X obj 91 192 array size crash1;
#X obj 88 324 tabread4~ crash1;
#X obj 219 218 * 1;
#X obj 88 375 throw~ amen_sig;
#X obj 216 252 r stop_others;
#X msg 216 277 stop;
#X obj 169 68 t b b;
#X obj 239 88 s stop_others;
#X obj 88 349 hip~ 5;
#X connect 0 0 9 0;
#X connect 1 0 6 0;
#X connect 2 0 1 0;
#X connect 3 0 10 0;
#X connect 4 0 2 0;
#X connect 4 1 8 0;
#X connect 5 0 4 0;
#X connect 6 0 0 0;
#X connect 7 0 14 0;
#X connect 8 0 1 1;
#X connect 9 0 16 0;
#X connect 10 0 1 2;
#X connect 12 0 13 0;
#X connect 13 0 0 0;
#X connect 14 0 4 0;
#X connect 14 1 15 0;
#X connect 16 0 11 0;
