#N canvas 2 31 953 1011 12;
#X obj 320 11 inlet;
#X obj 320 68 random 2;
#X obj 320 93 sel 0 1;
#X obj 50 344 tabread4~ kick1;
#X obj 50 317 vline~;
#X obj 50 255 pack f f f;
#X msg 18 212 0;
#X floatatom 175 212 8 0 0 0 - mspb - 0;
#X obj 53 212 array size kick1;
#X obj 18 185 t b b;
#X obj 18 156 bng 20 250 50 0 empty empty empty 0 -10 0 12 #fcfcfc #000000 #000000;
#X msg 50 287 \$1 \, \$2 \$3;
#X obj 338 343 vline~;
#X obj 338 281 pack f f f;
#X msg 306 238 0;
#X floatatom 463 238 8 0 0 0 - mspb - 0;
#X obj 306 211 t b b;
#X obj 306 182 bng 20 250 50 0 empty empty empty 0 -10 0 12 #fcfcfc #000000 #000000;
#X msg 338 313 \$1 \, \$2 \$3;
#X obj 341 238 array size kick2;
#X obj 338 370 tabread4~ kick1;
#X obj 175 238 * 1;
#X obj 463 264 * 1;
#X obj 50 393 throw~ amen_sig;
#X obj 338 420 throw~ amen_sig;
#X obj 146 86 synth_kick;
#X obj 453 56 s stop_others;
#X obj 320 36 t b b;
#X obj 218 433 r stop_others;
#X msg 218 458 stop;
#X obj 50 369 hip~ 5;
#X obj 338 395 hip~ 5;
#X connect 0 0 27 0;
#X connect 1 0 2 0;
#X connect 2 0 9 0;
#X connect 2 1 16 0;
#X connect 3 0 30 0;
#X connect 4 0 3 0;
#X connect 5 0 11 0;
#X connect 6 0 5 0;
#X connect 7 0 21 0;
#X connect 8 0 5 1;
#X connect 9 0 6 0;
#X connect 9 1 8 0;
#X connect 10 0 9 0;
#X connect 11 0 4 0;
#X connect 12 0 20 0;
#X connect 13 0 18 0;
#X connect 14 0 13 0;
#X connect 15 0 22 0;
#X connect 16 0 14 0;
#X connect 16 1 19 0;
#X connect 17 0 16 0;
#X connect 18 0 12 0;
#X connect 19 0 13 1;
#X connect 20 0 31 0;
#X connect 21 0 5 2;
#X connect 22 0 13 2;
#X connect 27 0 1 0;
#X connect 27 0 25 0;
#X connect 27 1 26 0;
#X connect 28 0 29 0;
#X connect 29 0 4 0;
#X connect 29 0 12 0;
#X connect 30 0 23 0;
#X connect 31 0 24 0;
#X coords 0 0 0.5 0.5 0 0 0;
