#N canvas 395 0 1516 988 12;
#N canvas -1090 28 1000 372 sequence_clock 0;
#X msg 334 54 tempo \$1 permin;
#X obj 311 115 int 0;
#X obj 375 115 + 1;
#X obj 360 144 sel 15;
#X obj 311 153 + 1;
#X obj 259 28 inlet;
#X obj 334 28 inlet;
#X floatatom 311 182 5 0 0 0 - - -;
#X obj 259 58 t f f;
#X msg 259 84 0;
#X obj 38 291 s 01/16;
#X obj 38 275 bng 12 250 50 0 empty empty empty 17 7 0 10 -262144 -1
-1;
#X obj 93 275 bng 12 250 50 0 empty empty empty 17 7 0 10 -262144 -1
-1;
#X obj 148 275 bng 12 250 50 0 empty empty empty 17 7 0 10 -262144
-1 -1;
#X obj 203 275 bng 12 250 50 0 empty empty empty 17 7 0 10 -262144
-1 -1;
#X obj 258 275 bng 12 250 50 0 empty empty empty 17 7 0 10 -262144
-1 -1;
#X obj 313 275 bng 12 250 50 0 empty empty empty 17 7 0 10 -262144
-1 -1;
#X obj 368 275 bng 12 250 50 0 empty empty empty 17 7 0 10 -262144
-1 -1;
#X obj 423 275 bng 12 250 50 0 empty empty empty 17 7 0 10 -262144
-1 -1;
#X obj 478 275 bng 12 250 50 0 empty empty empty 17 7 0 10 -262144
-1 -1;
#X obj 533 275 bng 12 250 50 0 empty empty empty 17 7 0 10 -262144
-1 -1;
#X obj 588 275 bng 12 250 50 0 empty empty empty 17 7 0 10 -262144
-1 -1;
#X obj 643 275 bng 12 250 50 0 empty empty empty 17 7 0 10 -262144
-1 -1;
#X obj 93 291 s 02/16;
#X obj 148 291 s 03/16;
#X obj 203 291 s 04/16;
#X obj 258 291 s 05/16;
#X obj 313 291 s 06/16;
#X obj 368 291 s 07/16;
#X obj 423 291 s 08/16;
#X obj 478 291 s 09/16;
#X obj 533 291 s 10/16;
#X obj 588 291 s 11/16;
#X obj 643 291 s 12/16;
#X obj 753 275 bng 12 250 50 0 empty empty empty 17 7 0 10 -262144
-1 -1;
#X obj 808 275 bng 12 250 50 0 empty empty empty 17 7 0 10 -262144
-1 -1;
#X obj 863 275 bng 12 250 50 0 empty empty empty 17 7 0 10 -262144
-1 -1;
#X obj 698 275 bng 12 250 50 0 empty empty empty 17 7 0 10 -262144
-1 -1;
#X obj 698 291 s 13/16;
#X obj 753 291 s 14/16;
#X obj 808 291 s 15/16;
#X obj 863 291 s 16/16;
#X obj 311 210 sel 1 2 3 4 5 6 7 8 9 10 11 12 13 14 15 16;
#X obj 311 80 metro 0.25 100 permin;
#X connect 0 0 43 0;
#X connect 1 0 2 0;
#X connect 1 0 4 0;
#X connect 1 0 3 0;
#X connect 2 0 1 1;
#X connect 3 0 9 0;
#X connect 4 0 7 0;
#X connect 5 0 8 0;
#X connect 6 0 0 0;
#X connect 7 0 42 0;
#X connect 8 0 9 0;
#X connect 8 1 43 0;
#X connect 9 0 1 1;
#X connect 11 0 10 0;
#X connect 12 0 23 0;
#X connect 13 0 24 0;
#X connect 14 0 25 0;
#X connect 15 0 26 0;
#X connect 16 0 27 0;
#X connect 17 0 28 0;
#X connect 18 0 29 0;
#X connect 19 0 30 0;
#X connect 20 0 31 0;
#X connect 21 0 32 0;
#X connect 22 0 33 0;
#X connect 34 0 39 0;
#X connect 35 0 40 0;
#X connect 36 0 41 0;
#X connect 37 0 38 0;
#X connect 42 0 11 0;
#X connect 42 1 12 0;
#X connect 42 2 13 0;
#X connect 42 3 14 0;
#X connect 42 4 15 0;
#X connect 42 5 16 0;
#X connect 42 6 17 0;
#X connect 42 7 18 0;
#X connect 42 8 19 0;
#X connect 42 9 20 0;
#X connect 42 10 21 0;
#X connect 42 11 22 0;
#X connect 42 12 37 0;
#X connect 42 13 34 0;
#X connect 42 14 35 0;
#X connect 42 15 36 0;
#X connect 43 0 1 0;
#X restore 7 77 pd sequence_clock;
#X obj 7 51 tgl 20 0 empty empty empty 17 7 0 10 -262144 -1 -1 0 1
;
#X floatatom 123 52 8 30 300 1 BPM - #0-bpm;
#N canvas 1071 231 723 459 astrazioni 0;
#N canvas 519 106 1342 794 snare 0;
#X obj 142 75 inlet;
#X obj 110 205 noise~;
#X obj 106 75 bng 20 250 50 0 empty empty empty 0 -10 0 12 -262144
-1 -1;
#X obj 110 270 *~;
#X obj 204 243 vline~;
#X obj 62 180 line;
#X obj 110 240 bp~ 1000 4;
#X msg 62 155 1300 0 \, 1000 130 0;
#X obj 110 307 throw~ \$0-master_sig;
#X msg 204 156 0.5 5 \, 0 150 5;
#X connect 0 0 9 0;
#X connect 0 0 7 0;
#X connect 1 0 6 0;
#X connect 2 0 9 0;
#X connect 2 0 7 0;
#X connect 3 0 8 0;
#X connect 4 0 3 1;
#X connect 5 0 6 1;
#X connect 6 0 3 0;
#X connect 7 0 5 0;
#X connect 9 0 4 0;
#X restore 63 8 pd snare;
#N canvas 438 38 1420 821 kick 0;
#X obj 116 39 inlet;
#X obj 90 29 bng 20 250 50 0 empty empty empty 0 -10 0 12 -262144 -1
-1;
#X obj 20 203 osc~;
#X obj 20 158 vline~;
#X obj 150 162 vline~;
#X obj 103 255 *~;
#X obj 103 289 hip~ 50;
#X obj 103 330 throw~ \$0-master_sig;
#X msg 150 102 0.5 1 \, 0 120 1;
#X msg 20 101 150 0 \, 30 100 0;
#X connect 0 0 8 0;
#X connect 0 0 9 0;
#X connect 1 0 8 0;
#X connect 1 0 9 0;
#X connect 2 0 5 0;
#X connect 3 0 2 0;
#X connect 4 0 5 1;
#X connect 5 0 6 0;
#X connect 6 0 7 0;
#X connect 8 0 4 0;
#X connect 9 0 3 0;
#X restore 5 8 pd kick;
#N canvas 199 23 1631 929 loader 0;
#X obj 579 16 loadbang;
#X obj 675 19 bng 15 250 50 0 empty empty empty 17 7 0 10 -262144 -1
-1;
#X obj 608 203 soundfiler;
#N canvas 0 50 450 250 (subpatch) 0;
#X array kick1 18375 float 0;
#X coords 0 1 18374 -1 200 140 1 0 0;
#X restore 13 263 graph;
#N canvas 0 50 450 250 (subpatch) 0;
#X array kick2 18375 float 0;
#X coords 0 1 18374 -1 200 140 1 0 0;
#X restore 215 263 graph;
#N canvas 0 50 450 250 (subpatch) 0;
#X array snare1 18375 float 0;
#X coords 0 1 18374 -1 200 140 1 0 0;
#X restore 13 423 graph;
#N canvas 0 50 450 250 (subpatch) 0;
#X array snare2 18375 float 0;
#X coords 0 1 18374 -1 200 140 1 0 0;
#X restore 215 423 graph;
#N canvas 0 50 450 250 (subpatch) 0;
#X array snare3 18375 float 0;
#X coords 0 1 18374 -1 200 140 1 0 0;
#X restore 417 423 graph;
#N canvas 0 50 450 250 (subpatch) 0;
#X array snare4 18375 float 0;
#X coords 0 1 18374 -1 200 140 1 0 0;
#X restore 619 423 graph;
#N canvas 0 50 450 250 (subpatch) 0;
#X array ghost1 18375 float 2;
#X coords 0 1 18375 -1 200 140 1 0 0;
#X restore 13 583 graph;
#N canvas 0 50 450 250 (subpatch) 0;
#X array ghost2 18375 float 2;
#X coords 0 1 18375 -1 200 140 1 0 0;
#X restore 215 583 graph;
#N canvas 0 50 450 250 (subpatch) 0;
#X array ghost3 18375 float 2;
#X coords 0 1 18375 -1 200 140 1 0 0;
#X restore 417 583 graph;
#N canvas 0 50 450 250 (subpatch) 0;
#X array ghost4 18375 float 2;
#X coords 0 1 18375 -1 200 140 1 0 0;
#X restore 619 583 graph;
#N canvas 0 50 450 250 (subpatch) 0;
#X array crash1 18286 float 2;
#X coords 0 1 18286 -1 200 140 1 0 0;
#X restore 13 743 graph;
#X msg 157 83 read -resize a_kick1.wav kick1;
#X msg 141 105 read -resize a_kick2.wav kick2;
#X msg 433 83 read -resize a_snare1.wav snare1;
#X msg 420 105 read -resize a_snare1.wav snare2;
#X msg 408 128 read -resize a_snare3.wav snare3;
#X msg 395 150 read -resize a_snare4.wav snare4;
#X msg 720 83 read -resize a_ghost1.wav ghost1;
#X msg 708 105 read -resize a_ghost2.wav ghost2;
#X msg 698 127 read -resize a_ghost3.wav ghost3;
#X msg 688 150 read -resize a_ghost4.wav ghost4;
#X msg 1002 82 read -resize a_crash1.wav crash1;
#X connect 0 0 23 0;
#X connect 0 0 22 0;
#X connect 0 0 21 0;
#X connect 0 0 17 0;
#X connect 0 0 15 0;
#X connect 0 0 24 0;
#X connect 0 0 20 0;
#X connect 0 0 14 0;
#X connect 0 0 16 0;
#X connect 0 0 19 0;
#X connect 0 0 18 0;
#X connect 1 0 23 0;
#X connect 1 0 22 0;
#X connect 1 0 21 0;
#X connect 1 0 17 0;
#X connect 1 0 15 0;
#X connect 1 0 24 0;
#X connect 1 0 20 0;
#X connect 1 0 14 0;
#X connect 1 0 16 0;
#X connect 1 0 19 0;
#X connect 1 0 18 0;
#X connect 14 0 2 0;
#X connect 15 0 2 0;
#X connect 16 0 2 0;
#X connect 17 0 2 0;
#X connect 18 0 2 0;
#X connect 19 0 2 0;
#X connect 20 0 2 0;
#X connect 21 0 2 0;
#X connect 22 0 2 0;
#X connect 23 0 2 0;
#X connect 24 0 2 0;
#X restore 291 206 pd loader;
#X restore 653 11 pd astrazioni;
#X obj 8 417 *~;
#X floatatom 26 394 5 0 0 0 - #0-master_ctl -;
#X obj 56 231 vsl 10 100 0.01 1 1 0 \$0-master_ctl empty master 0 -10
0 12 -260948 -1 -1 0 1;
#X obj 10 187 ctlin 57;
#X obj 10 210 / 127;
#X obj 8 443 clip~ -1 1;
#X obj 8 470 dac~;
#X obj 8 372 catch~ \$0-master_sig;
#X obj 123 6 ctlin 8;
#X obj 123 29 expr ($f1 / 127 * 270) + 30;
#X obj 168 163 r 01/16;
#N canvas 519 106 1342 794 snare 0;
#X obj 142 75 inlet;
#X obj 110 205 noise~;
#X obj 106 75 bng 20 250 50 0 empty empty empty 0 -10 0 12 -262144
-1 -1;
#X obj 110 270 *~;
#X obj 204 243 vline~;
#X obj 62 180 line;
#X obj 110 240 bp~ 1000 4;
#X msg 62 155 1300 0 \, 1000 130 0;
#X obj 110 307 throw~ \$0-master_sig;
#X msg 204 156 0.5 5 \, 0 150 5;
#X connect 0 0 9 0;
#X connect 0 0 7 0;
#X connect 1 0 6 0;
#X connect 2 0 9 0;
#X connect 2 0 7 0;
#X connect 3 0 8 0;
#X connect 4 0 3 1;
#X connect 5 0 6 1;
#X connect 6 0 3 0;
#X connect 7 0 5 0;
#X connect 9 0 4 0;
#X restore 436 272 pd snare;
#N canvas 438 38 1420 821 kick 0;
#X obj 116 39 inlet;
#X obj 90 29 bng 20 250 50 0 empty empty empty 0 -10 0 12 -262144 -1
-1;
#X obj 20 203 osc~;
#X obj 20 158 vline~;
#X obj 150 162 vline~;
#X obj 103 255 *~;
#X obj 103 289 hip~ 50;
#X obj 103 330 throw~ \$0-master_sig;
#X msg 150 102 0.5 1 \, 0 120 1;
#X msg 20 101 150 0 \, 30 100 0;
#X connect 0 0 8 0;
#X connect 0 0 9 0;
#X connect 1 0 8 0;
#X connect 1 0 9 0;
#X connect 2 0 5 0;
#X connect 3 0 2 0;
#X connect 4 0 5 1;
#X connect 5 0 6 0;
#X connect 6 0 7 0;
#X connect 8 0 4 0;
#X connect 9 0 3 0;
#X restore 225 270 pd kick;
#X obj 223 163 r 03/16;
#X obj 279 163 r 05/16;
#X obj 334 163 r 07/16;
#X obj 389 163 r 09/16;
#X obj 444 163 r 11/16;
#X obj 500 163 r 13/16;
#X obj 555 163 r 15/16;
#X connect 1 0 0 0;
#X connect 4 0 9 0;
#X connect 5 0 4 1;
#X connect 7 0 8 0;
#X connect 8 0 6 0;
#X connect 9 0 10 0;
#X connect 9 0 10 1;
#X connect 11 0 4 0;
#X connect 12 0 13 0;
#X connect 13 0 2 0;
#X connect 14 0 16 0;
#X connect 17 0 15 0;
#X connect 18 0 16 0;
#X connect 19 0 15 0;
#X connect 20 0 16 0;
#X connect 21 0 16 0;
#X connect 22 0 15 0;
#X connect 23 0 15 0;
