#N canvas 5 19 1912 1011 12;
#X obj 41 16 inlet;
#X floatatom 87 16 5 50 1000 0 - - -;
#X obj 41 68 phasor~;
#X obj 41 93 expr~ ($v1 - 0.5) * 2;
#X obj 41 325 clip~ -1 1;
#X obj 41 292 *~;
#X obj 92 273 vline~;
#X obj 167 132 r mspb;
#X obj 92 132 inlet;
#X obj 92 156 expr ($f1 * $f2) - $f3;
#X obj 92 217 pack;
#X msg 92 241 1 \$2 0 \, 0 \$1 \$2;
#X floatatom 53 124 5 0 0 0 - - -;
#X obj 41 420 throw~ harm_sig;
#X obj 41 349 *~ 0.33;
#X obj 259 118 loadbang;
#X msg 259 141 40;
#X connect 0 0 2 0;
#X connect 1 0 2 0;
#X connect 2 0 3 0;
#X connect 3 0 5 0;
#X connect 4 0 14 0;
#X connect 5 0 4 0;
#X connect 6 0 5 1;
#X connect 7 0 9 1;
#X connect 8 0 9 0;
#X connect 9 0 10 0;
#X connect 10 0 11 0;
#X connect 11 0 6 0;
#X connect 12 0 9 0;
#X connect 14 0 13 0;
#X connect 15 0 16 0;
#X connect 16 0 10 1;
