#N canvas 244 31 1638 1011 12;
#X obj 186 75 inlet;
#X obj 150 75 bng 20 250 50 0 empty empty empty 0 -10 0 12 -262144
-1 -1;
#X obj 213 393 throw~ drum_sig;
#X obj 104 122 noise~;
#X obj 104 225 *~;
#X floatatom 293 95 5 0 0 0 - - -;
#X obj 261 171 vline~;
#X obj 261 206 *~;
#X obj 104 147 hip~ 150;
#X msg 261 146 0.75 0.5 \, 0 \$1 0.5;
#X obj 323 255 vline~;
#X msg 323 230 0.75 0.5 \, 0 \$1 0.5;
#X obj 323 279 *~ 8000;
#X obj 323 303 +~ 100;
#X obj 392 279 *~ 5000;
#X obj 392 303 +~ 200;
#X obj 323 206 * 2;
#X obj 261 118 f 180;
#X obj 430 113 loadbang;
#X msg 430 143 4000;
#X obj 214 342 vcf~ 1;
#X obj 269 342 vcf~ 2;
#X obj 524 35 vsl 15 128 10 10000 0 0 empty empty empty 0 -9 0 10 -262144
-1 -1 10800 1;
#X floatatom 524 168 5 0 0 0 - - -;
#X obj 466 208 * 0.7;
#X connect 0 0 17 0;
#X connect 1 0 17 0;
#X connect 3 0 8 0;
#X connect 4 0 20 0;
#X connect 4 0 21 0;
#X connect 5 0 17 1;
#X connect 6 0 7 0;
#X connect 6 0 7 1;
#X connect 7 0 4 1;
#X connect 8 0 4 0;
#X connect 9 0 6 0;
#X connect 10 0 12 0;
#X connect 10 0 14 0;
#X connect 11 0 10 0;
#X connect 12 0 13 0;
#X connect 13 0 20 1;
#X connect 14 0 15 0;
#X connect 15 0 21 1;
#X connect 16 0 11 0;
#X connect 17 0 9 0;
#X connect 17 0 16 0;
#X connect 18 0 19 0;
#X connect 19 0 24 0;
#X connect 20 0 2 0;
#X connect 21 0 2 0;
#X connect 22 0 23 0;
#X connect 23 0 24 0;
#X connect 24 0 12 1;
#X connect 24 0 14 1;
