#N canvas 961 31 953 1011 12;
#X obj 95 140 osc~;
#X obj 95 164 expr~ if($v1 > $v2 \, 1 \, -1);
#X obj 277 144 hsl 128 15 0 0.9 0 0 empty empty pulsewidth -2 -8 0 10 #fcfcfc #000000 #000000 0 1;
#X obj 407 347 *~;
#X obj 95 326 *~;
#X obj 407 321 vline~;
#X msg 407 296 1 0 0 \, 0 \$1 0;
#X obj 425 223 r mspb;
#X obj 407 273 f;
#X obj 407 227 bng 15 250 50 0 empty empty empty 17 7 0 10 #fcfcfc #000000 #000000;
#X obj 63 43 inlet;
#X obj 63 87 t b f;
#X obj 425 247 * 1.5;
#X obj 91 765 throw~ bell_sig;
#X obj 95 530 lop~ 4500;
#X obj 129 564 rev2~ 100 80 5000 80;
#X obj 345 648 *~ 0.25;
#X obj 54 620 *~ 0.75;
#X obj 90 677 +~;
#X connect 0 0 1 0;
#X connect 1 0 4 0;
#X connect 2 0 1 1;
#X connect 3 0 4 1;
#X connect 4 0 14 0;
#X connect 5 0 3 0;
#X connect 5 0 3 1;
#X connect 6 0 5 0;
#X connect 7 0 12 0;
#X connect 8 0 6 0;
#X connect 9 0 8 0;
#X connect 10 0 11 0;
#X connect 11 0 9 0;
#X connect 11 1 0 0;
#X connect 12 0 8 1;
#X connect 14 0 15 0;
#X connect 14 0 17 0;
#X connect 15 3 16 0;
#X connect 16 0 18 1;
#X connect 17 0 18 0;
#X connect 18 0 13 0;
