#N canvas 21 54 1817 865 12;
#X obj 58 26 inlet;
#X obj 58 269 phasor~;
#X obj 58 323 send~ saw_bass;
#X obj 213 85 bng 15 250 50 0 empty empty empty 17 7 0 10 -262144 -1
-1;
#X obj 213 175 line;
#X floatatom 213 199 5 0 0 0 - - -;
#X obj 213 246 + 500;
#X floatatom 213 270 5 0 0 0 - - -;
#X obj 213 293 s filter_freq;
#X msg 213 120 1 10;
#X obj 258 100 del 10;
#X msg 258 151 0 \$1;
#X obj 333 77 r mspb;
#X obj 333 101 / 2;
#X obj 315 125 f;
#X obj 719 71 bng 15 250 50 0 empty empty empty 17 7 0 10 -262144 -1
-1;
#X obj 719 175 line;
#X floatatom 719 199 5 0 0 0 - - -;
#X msg 719 120 1 10;
#X obj 764 100 del 10;
#X msg 764 151 0 \$1;
#X obj 839 77 r mspb;
#X obj 821 125 f;
#X obj 701 271 *~;
#X obj 701 333 throw~ bass_sig;
#X obj 391 97 receive~ saw_bass;
#X obj 391 211 vcf~;
#X obj 416 164 loadbang;
#X msg 416 188 9;
#X obj 404 142 r filter_freq;
#X obj 533 97 receive~ saw_bass;
#X obj 533 211 vcf~;
#X obj 558 164 loadbang;
#X obj 546 142 r filter_freq;
#X msg 558 188 25;
#X obj 839 101 * 1;
#X obj 213 222 * 4000;
#X obj 58 295 expr~ ($v1 - 0.5) * 2;
#X obj 701 295 *~ 8;
#X connect 0 0 1 0;
#X connect 0 0 3 0;
#X connect 0 0 15 0;
#X connect 1 0 37 0;
#X connect 3 0 9 0;
#X connect 3 0 10 0;
#X connect 4 0 5 0;
#X connect 5 0 36 0;
#X connect 6 0 7 0;
#X connect 7 0 8 0;
#X connect 9 0 4 0;
#X connect 10 0 14 0;
#X connect 11 0 4 0;
#X connect 12 0 13 0;
#X connect 13 0 14 1;
#X connect 14 0 11 0;
#X connect 15 0 18 0;
#X connect 15 0 19 0;
#X connect 16 0 17 0;
#X connect 17 0 23 1;
#X connect 18 0 16 0;
#X connect 19 0 22 0;
#X connect 20 0 16 0;
#X connect 21 0 35 0;
#X connect 22 0 20 0;
#X connect 23 0 38 0;
#X connect 25 0 26 0;
#X connect 26 0 23 0;
#X connect 27 0 28 0;
#X connect 28 0 26 2;
#X connect 29 0 26 1;
#X connect 30 0 31 0;
#X connect 31 0 23 0;
#X connect 32 0 34 0;
#X connect 33 0 31 1;
#X connect 34 0 31 2;
#X connect 35 0 22 1;
#X connect 36 0 6 0;
#X connect 37 0 2 0;
#X connect 38 0 24 0;
