#N canvas -8 -8 1920 997 12;
#X obj 116 49 inlet;
#X obj 90 39 bng 20 250 50 0 empty empty empty 0 -10 0 12 -262144 -1
-1;
#X obj 20 183 osc~;
#X obj 20 138 vline~;
#X obj 150 142 vline~;
#X obj 183 414 *~;
#X msg 20 81 150 0 \, 30 100 0;
#X obj 183 465 throw~ drum_sig;
#X msg 150 82 1 1 \, 0 120 1;
#X obj 79 146 noise~;
#X obj 79 171 lop~ 200;
#X obj 20 355 clip~;
#X floatatom 46 281 5 0 1 0 - - -;
#X obj 58 302 * -1;
#X obj 61 375 expr~ 1 / $v1;
#X obj 20 395 *~;
#X obj 183 440 lop~ 200;
#X obj 46 229 loadbang;
#X msg 46 254 0.7;
#X connect 0 0 8 0;
#X connect 0 0 6 0;
#X connect 1 0 8 0;
#X connect 1 0 6 0;
#X connect 2 0 11 0;
#X connect 3 0 2 0;
#X connect 4 0 5 1;
#X connect 5 0 16 0;
#X connect 6 0 3 0;
#X connect 8 0 4 0;
#X connect 9 0 10 0;
#X connect 10 0 5 0;
#X connect 11 0 15 0;
#X connect 12 0 13 0;
#X connect 12 0 11 2;
#X connect 12 0 14 0;
#X connect 13 0 11 1;
#X connect 14 0 15 1;
#X connect 15 0 5 0;
#X connect 16 0 7 0;
#X connect 17 0 18 0;
#X connect 18 0 12 0;
